<svg width="3200" height="3200" viewBox="0 0 3200 3200" fill="none" xmlns="http://www.w3.org/2000/svg">
<rect width="3200" height="3200" fill="#FEB74C"/>
<path d="M1178 439V403C1178 400.791 1176.21 399 1174 399H982C979.791 399 978 397.209 978 395L978 359" stroke="#1C1A1A" stroke-width="2" stroke-linecap="round" stroke-linejoin="round"/>
<path d="M778 439V403C778 400.791 779.791 399 782 399H974C976.209 399 978 397.209 978 395L978 359" stroke="#1C1A1A" stroke-width="2" stroke-linecap="round" stroke-linejoin="round"/>
<path d="M935.262 326H930.646L943.998 289.636H948.543L961.896 326H957.279L946.413 295.389H946.129L935.262 326ZM936.967 311.795H955.575V315.702H936.967V311.795ZM967.56 326V289.636H979.847C982.699 289.636 985.031 290.151 986.842 291.181C988.665 292.199 990.015 293.578 990.891 295.318C991.767 297.058 992.205 299 992.205 301.142C992.205 303.285 991.767 305.232 990.891 306.984C990.027 308.736 988.689 310.132 986.878 311.174C985.067 312.204 982.747 312.719 979.918 312.719H971.111V308.812H979.776C981.729 308.812 983.297 308.475 984.481 307.8C985.665 307.126 986.523 306.214 987.055 305.066C987.6 303.906 987.872 302.598 987.872 301.142C987.872 299.686 987.6 298.384 987.055 297.236C986.523 296.088 985.659 295.188 984.463 294.537C983.268 293.874 981.681 293.543 979.705 293.543H971.963V326H967.56ZM999.298 326V289.636H1011.58C1014.44 289.636 1016.77 290.151 1018.58 291.181C1020.4 292.199 1021.75 293.578 1022.63 295.318C1023.5 297.058 1023.94 299 1023.94 301.142C1023.94 303.285 1023.5 305.232 1022.63 306.984C1021.76 308.736 1020.43 310.132 1018.62 311.174C1016.81 312.204 1014.48 312.719 1011.66 312.719H1002.85V308.812H1011.51C1013.47 308.812 1015.04 308.475 1016.22 307.8C1017.4 307.126 1018.26 306.214 1018.79 305.066C1019.34 303.906 1019.61 302.598 1019.61 301.142C1019.61 299.686 1019.34 298.384 1018.79 297.236C1018.26 296.088 1017.4 295.188 1016.2 294.537C1015.01 293.874 1013.42 293.543 1011.44 293.543H1003.7V326H999.298Z" fill="#1C1A1A"/>
<path d="M1799 439V403C1799 400.791 1797.21 399 1795 399H1603C1600.79 399 1599 397.209 1599 395L1599 359" stroke="#1C1A1A" stroke-width="2" stroke-linecap="round" stroke-linejoin="round"/>
<path d="M1399 439V403C1399 400.791 1400.79 399 1403 399H1595C1597.21 399 1599 397.209 1599 395L1599 359" stroke="#1C1A1A" stroke-width="2" stroke-linecap="round" stroke-linejoin="round"/>
<path d="M1480.67 289.636H1485.93L1498.29 319.821H1498.71L1511.07 289.636H1516.33V326H1512.21V298.372H1511.85L1500.49 326H1496.51L1485.15 298.372H1484.79V326H1480.67V289.636ZM1555.84 307.818C1555.84 311.653 1555.15 314.968 1553.76 317.761C1552.38 320.555 1550.48 322.709 1548.06 324.224C1545.65 325.74 1542.89 326.497 1539.79 326.497C1536.69 326.497 1533.93 325.74 1531.51 324.224C1529.1 322.709 1527.2 320.555 1525.81 317.761C1524.43 314.968 1523.74 311.653 1523.74 307.818C1523.74 303.983 1524.43 300.669 1525.81 297.875C1527.2 295.081 1529.1 292.927 1531.51 291.412C1533.93 289.897 1536.69 289.139 1539.79 289.139C1542.89 289.139 1545.65 289.897 1548.06 291.412C1550.48 292.927 1552.38 295.081 1553.76 297.875C1555.15 300.669 1555.84 303.983 1555.84 307.818ZM1551.58 307.818C1551.58 304.67 1551.05 302.012 1550 299.846C1548.95 297.68 1547.54 296.04 1545.75 294.928C1543.98 293.815 1541.99 293.259 1539.79 293.259C1537.59 293.259 1535.59 293.815 1533.8 294.928C1532.03 296.04 1530.61 297.68 1529.56 299.846C1528.52 302.012 1528 304.67 1528 307.818C1528 310.967 1528.52 313.624 1529.56 315.79C1530.61 317.957 1532.03 319.596 1533.8 320.709C1535.59 321.821 1537.59 322.378 1539.79 322.378C1541.99 322.378 1543.98 321.821 1545.75 320.709C1547.54 319.596 1548.95 317.957 1550 315.79C1551.05 313.624 1551.58 310.967 1551.58 307.818ZM1574.46 326H1563.24V289.636H1574.96C1578.49 289.636 1581.51 290.364 1584.02 291.82C1586.53 293.264 1588.45 295.342 1589.79 298.053C1591.12 300.751 1591.79 303.983 1591.79 307.747C1591.79 311.535 1591.12 314.796 1589.77 317.531C1588.42 320.253 1586.45 322.348 1583.87 323.816C1581.29 325.272 1578.16 326 1574.46 326ZM1567.65 322.094H1574.18C1577.19 322.094 1579.68 321.514 1581.65 320.354C1583.63 319.194 1585.11 317.542 1586.08 315.4C1587.05 313.257 1587.53 310.706 1587.53 307.747C1587.53 304.812 1587.05 302.284 1586.09 300.165C1585.14 298.035 1583.7 296.401 1581.8 295.265C1579.89 294.117 1577.52 293.543 1574.68 293.543H1567.65V322.094ZM1623.04 289.636H1627.45V313.713C1627.45 316.199 1626.86 318.418 1625.69 320.371C1624.53 322.313 1622.89 323.846 1620.77 324.97C1618.65 326.083 1616.17 326.639 1613.31 326.639C1610.46 326.639 1607.97 326.083 1605.86 324.97C1603.74 323.846 1602.09 322.313 1600.92 320.371C1599.76 318.418 1599.18 316.199 1599.18 313.713V289.636H1603.58V313.358C1603.58 315.134 1603.97 316.714 1604.76 318.099C1605.54 319.472 1606.65 320.555 1608.09 321.348C1609.55 322.129 1611.29 322.52 1613.31 322.52C1615.34 322.52 1617.08 322.129 1618.53 321.348C1619.99 320.555 1621.1 319.472 1621.87 318.099C1622.65 316.714 1623.04 315.134 1623.04 313.358V289.636ZM1636.24 326V289.636H1640.64V322.094H1657.55V326H1636.24ZM1664.37 326V289.636H1686.31V293.543H1668.77V305.83H1685.17V309.736H1668.77V322.094H1686.6V326H1664.37ZM1714.13 298.727C1713.92 296.928 1713.06 295.531 1711.54 294.537C1710.03 293.543 1708.17 293.045 1705.97 293.045C1704.36 293.045 1702.95 293.306 1701.74 293.827C1700.55 294.348 1699.61 295.064 1698.94 295.975C1698.27 296.887 1697.94 297.922 1697.94 299.082C1697.94 300.053 1698.17 300.888 1698.63 301.586C1699.11 302.272 1699.71 302.847 1700.44 303.308C1701.18 303.758 1701.95 304.131 1702.75 304.427C1703.56 304.711 1704.3 304.942 1704.97 305.119L1708.67 306.114C1709.61 306.362 1710.67 306.705 1711.83 307.143C1713 307.581 1714.12 308.179 1715.18 308.937C1716.26 309.683 1717.15 310.641 1717.85 311.813C1718.54 312.985 1718.89 314.423 1718.89 316.128C1718.89 318.093 1718.38 319.868 1717.35 321.455C1716.33 323.041 1714.84 324.301 1712.87 325.237C1710.92 326.172 1708.55 326.639 1705.75 326.639C1703.15 326.639 1700.89 326.219 1698.99 325.379C1697.09 324.538 1695.6 323.366 1694.51 321.863C1693.44 320.36 1692.83 318.614 1692.69 316.625H1697.23C1697.35 317.998 1697.81 319.134 1698.62 320.034C1699.43 320.922 1700.46 321.585 1701.71 322.023C1702.96 322.449 1704.31 322.662 1705.75 322.662C1707.43 322.662 1708.94 322.39 1710.28 321.845C1711.62 321.289 1712.68 320.519 1713.46 319.537C1714.24 318.543 1714.63 317.383 1714.63 316.057C1714.63 314.849 1714.29 313.867 1713.62 313.109C1712.94 312.352 1712.06 311.736 1710.96 311.263C1709.86 310.789 1708.67 310.375 1707.39 310.02L1702.91 308.741C1700.07 307.925 1697.82 306.759 1696.17 305.244C1694.51 303.728 1693.68 301.746 1693.68 299.295C1693.68 297.259 1694.23 295.484 1695.33 293.969C1696.44 292.442 1697.94 291.258 1699.81 290.418C1701.69 289.565 1703.79 289.139 1706.11 289.139C1708.45 289.139 1710.54 289.559 1712.36 290.4C1714.18 291.228 1715.63 292.365 1716.69 293.809C1717.77 295.253 1718.34 296.893 1718.4 298.727H1714.13Z" fill="#1C1A1A"/>
<path d="M2428 439V403C2428 400.791 2426.21 399 2424 399H2232C2229.79 399 2228 397.209 2228 395L2228 359" stroke="#1C1A1A" stroke-width="2" stroke-linecap="round" stroke-linejoin="round"/>
<path d="M2028 439V403C2028 400.791 2029.79 399 2032 399H2224C2226.21 399 2228 397.209 2228 395L2228 359" stroke="#1C1A1A" stroke-width="2" stroke-linecap="round" stroke-linejoin="round"/>
<path d="M2082.71 301H2078.31C2078.05 299.733 2077.59 298.621 2076.94 297.662C2076.3 296.703 2075.52 295.898 2074.6 295.247C2073.68 294.584 2072.67 294.087 2071.56 293.756C2070.45 293.424 2069.29 293.259 2068.08 293.259C2065.88 293.259 2063.88 293.815 2062.1 294.928C2060.32 296.04 2058.91 297.68 2057.85 299.846C2056.81 302.012 2056.29 304.67 2056.29 307.818C2056.29 310.967 2056.81 313.624 2057.85 315.79C2058.91 317.957 2060.32 319.596 2062.1 320.709C2063.88 321.821 2065.88 322.378 2068.08 322.378C2069.29 322.378 2070.45 322.212 2071.56 321.881C2072.67 321.549 2073.68 321.058 2074.6 320.407C2075.52 319.744 2076.3 318.933 2076.94 317.974C2077.59 317.004 2078.05 315.891 2078.31 314.636H2082.71C2082.38 316.495 2081.77 318.158 2080.9 319.626C2080.02 321.094 2078.93 322.342 2077.63 323.372C2076.33 324.39 2074.87 325.165 2073.25 325.698C2071.64 326.231 2069.91 326.497 2068.08 326.497C2064.98 326.497 2062.22 325.74 2059.8 324.224C2057.39 322.709 2055.49 320.555 2054.11 317.761C2052.72 314.968 2052.03 311.653 2052.03 307.818C2052.03 303.983 2052.72 300.669 2054.11 297.875C2055.49 295.081 2057.39 292.927 2059.8 291.412C2062.22 289.897 2064.98 289.139 2068.08 289.139C2069.91 289.139 2071.64 289.406 2073.25 289.938C2074.87 290.471 2076.33 291.252 2077.63 292.282C2078.93 293.3 2080.02 294.543 2080.9 296.011C2081.77 297.467 2082.38 299.13 2082.71 301ZM2120.51 307.818C2120.51 311.653 2119.81 314.968 2118.43 317.761C2117.04 320.555 2115.14 322.709 2112.73 324.224C2110.32 325.74 2107.56 326.497 2104.46 326.497C2101.35 326.497 2098.6 325.74 2096.18 324.224C2093.77 322.709 2091.87 320.555 2090.48 317.761C2089.1 314.968 2088.4 311.653 2088.4 307.818C2088.4 303.983 2089.1 300.669 2090.48 297.875C2091.87 295.081 2093.77 292.927 2096.18 291.412C2098.6 289.897 2101.35 289.139 2104.46 289.139C2107.56 289.139 2110.32 289.897 2112.73 291.412C2115.14 292.927 2117.04 295.081 2118.43 297.875C2119.81 300.669 2120.51 303.983 2120.51 307.818ZM2116.25 307.818C2116.25 304.67 2115.72 302.012 2114.67 299.846C2113.62 297.68 2112.21 296.04 2110.42 294.928C2108.65 293.815 2106.66 293.259 2104.46 293.259C2102.25 293.259 2100.26 293.815 2098.47 294.928C2096.7 296.04 2095.28 297.68 2094.23 299.846C2093.19 302.012 2092.67 304.67 2092.67 307.818C2092.67 310.967 2093.19 313.624 2094.23 315.79C2095.28 317.957 2096.7 319.596 2098.47 320.709C2100.26 321.821 2102.25 322.378 2104.46 322.378C2106.66 322.378 2108.65 321.821 2110.42 320.709C2112.21 319.596 2113.62 317.957 2114.67 315.79C2115.72 313.624 2116.25 310.967 2116.25 307.818ZM2127.91 289.636H2133.17L2145.52 319.821H2145.95L2158.31 289.636H2163.56V326H2159.45V298.372H2159.09L2147.73 326H2143.75L2132.39 298.372H2132.03V326H2127.91V289.636ZM2172.39 326V289.636H2184.68C2187.53 289.636 2189.87 290.151 2191.68 291.181C2193.5 292.199 2194.85 293.578 2195.72 295.318C2196.6 297.058 2197.04 299 2197.04 301.142C2197.04 303.285 2196.6 305.232 2195.72 306.984C2194.86 308.736 2193.52 310.132 2191.71 311.174C2189.9 312.204 2187.58 312.719 2184.75 312.719H2175.94V308.812H2184.61C2186.56 308.812 2188.13 308.475 2189.31 307.8C2190.5 307.126 2191.36 306.214 2191.89 305.066C2192.43 303.906 2192.71 302.598 2192.71 301.142C2192.71 299.686 2192.43 298.384 2191.89 297.236C2191.36 296.088 2190.49 295.188 2189.3 294.537C2188.1 293.874 2186.52 293.543 2184.54 293.543H2176.8V326H2172.39ZM2234.81 307.818C2234.81 311.653 2234.12 314.968 2232.74 317.761C2231.35 320.555 2229.45 322.709 2227.04 324.224C2224.62 325.74 2221.86 326.497 2218.76 326.497C2215.66 326.497 2212.9 325.74 2210.49 324.224C2208.07 322.709 2206.17 320.555 2204.79 317.761C2203.4 314.968 2202.71 311.653 2202.71 307.818C2202.71 303.983 2203.4 300.669 2204.79 297.875C2206.17 295.081 2208.07 292.927 2210.49 291.412C2212.9 289.897 2215.66 289.139 2218.76 289.139C2221.86 289.139 2224.62 289.897 2227.04 291.412C2229.45 292.927 2231.35 295.081 2232.74 297.875C2234.12 300.669 2234.81 303.983 2234.81 307.818ZM2230.55 307.818C2230.55 304.67 2230.03 302.012 2228.97 299.846C2227.93 297.68 2226.52 296.04 2224.73 294.928C2222.95 293.815 2220.96 293.259 2218.76 293.259C2216.56 293.259 2214.57 293.815 2212.78 294.928C2211 296.04 2209.59 297.68 2208.54 299.846C2207.49 302.012 2206.97 304.67 2206.97 307.818C2206.97 310.967 2207.49 313.624 2208.54 315.79C2209.59 317.957 2211 319.596 2212.78 320.709C2214.57 321.821 2216.56 322.378 2218.76 322.378C2220.96 322.378 2222.95 321.821 2224.73 320.709C2226.52 319.596 2227.93 317.957 2228.97 315.79C2230.03 313.624 2230.55 310.967 2230.55 307.818ZM2271.05 289.636V326H2266.79L2246.98 297.449H2246.62V326H2242.22V289.636H2246.48L2266.37 318.259H2266.72V289.636H2271.05ZM2279.86 326V289.636H2301.81V293.543H2284.27V305.83H2300.67V309.736H2284.27V322.094H2302.09V326H2279.86ZM2338.58 289.636V326H2334.32L2314.51 297.449H2314.15V326H2309.75V289.636H2314.01L2333.89 318.259H2334.25V289.636H2338.58ZM2345.41 293.543V289.636H2372.68V293.543H2361.24V326H2356.84V293.543H2345.41ZM2399.36 298.727C2399.15 296.928 2398.28 295.531 2396.77 294.537C2395.25 293.543 2393.39 293.045 2391.19 293.045C2389.58 293.045 2388.17 293.306 2386.97 293.827C2385.77 294.348 2384.84 295.064 2384.16 295.975C2383.5 296.887 2383.17 297.922 2383.17 299.082C2383.17 300.053 2383.4 300.888 2383.86 301.586C2384.33 302.272 2384.94 302.847 2385.67 303.308C2386.4 303.758 2387.17 304.131 2387.98 304.427C2388.78 304.711 2389.52 304.942 2390.2 305.119L2393.89 306.114C2394.84 306.362 2395.89 306.705 2397.05 307.143C2398.22 307.581 2399.34 308.179 2400.41 308.937C2401.48 309.683 2402.37 310.641 2403.07 311.813C2403.77 312.985 2404.12 314.423 2404.12 316.128C2404.12 318.093 2403.6 319.868 2402.57 321.455C2401.56 323.041 2400.06 324.301 2398.1 325.237C2396.15 326.172 2393.77 326.639 2390.98 326.639C2388.38 326.639 2386.12 326.219 2384.21 325.379C2382.32 324.538 2380.83 323.366 2379.74 321.863C2378.66 320.36 2378.05 318.614 2377.91 316.625H2382.46C2382.58 317.998 2383.04 319.134 2383.84 320.034C2384.66 320.922 2385.69 321.585 2386.93 322.023C2388.19 322.449 2389.54 322.662 2390.98 322.662C2392.66 322.662 2394.17 322.39 2395.51 321.845C2396.84 321.289 2397.9 320.519 2398.69 319.537C2399.47 318.543 2399.86 317.383 2399.86 316.057C2399.86 314.849 2399.52 313.867 2398.85 313.109C2398.17 312.352 2397.28 311.736 2396.18 311.263C2395.08 310.789 2393.89 310.375 2392.61 310.02L2388.14 308.741C2385.3 307.925 2383.05 306.759 2381.39 305.244C2379.73 303.728 2378.91 301.746 2378.91 299.295C2378.91 297.259 2379.46 295.484 2380.56 293.969C2381.67 292.442 2383.16 291.258 2385.03 290.418C2386.91 289.565 2389.01 289.139 2391.33 289.139C2393.68 289.139 2395.76 289.559 2397.58 290.4C2399.41 291.228 2400.85 292.365 2401.92 293.809C2402.99 295.253 2403.56 296.893 2403.62 298.727H2399.36Z" fill="#1C1A1A"/>
<path d="M1328 796H1292C1289.79 796 1288 797.791 1288 800V1673C1288 1675.21 1286.21 1677 1284 1677L1248 1677" stroke="#1C1A1A" stroke-width="2" stroke-linecap="round" stroke-linejoin="round"/>
<path d="M1328 2558H1292C1289.79 2558 1288 2556.21 1288 2554V1681C1288 1678.79 1286.21 1677 1284 1677L1248 1677" stroke="#1C1A1A" stroke-width="2" stroke-linecap="round" stroke-linejoin="round"/>
<g filter="url(#filter0_d_403_3507)">
<path fill-rule="evenodd" clip-rule="evenodd" d="M1585.69 2156.99L1404.21 2052.18C1396.5 2047.73 1397.46 2039.95 1406.36 2034.81L1582.23 1933.25C1591.13 1928.11 1604.6 1927.55 1612.31 1932.01L1793.79 2036.82C1801.5 2041.27 1800.54 2049.05 1791.64 2054.19L1615.77 2155.75C1606.87 2160.89 1593.4 2161.45 1585.69 2156.99" fill="#1C1A1A" fill-opacity="0.01"/>
</g>
<path fill-rule="evenodd" clip-rule="evenodd" d="M1585.69 2104.99L1404.21 2000.18C1396.5 1995.73 1397.46 1987.95 1406.36 1982.81L1582.23 1881.25C1591.13 1876.11 1604.6 1875.55 1612.31 1880.01L1793.79 1984.82C1801.5 1989.27 1800.54 1997.05 1791.64 2002.19L1615.77 2103.75C1606.87 2108.89 1593.4 2109.45 1585.69 2104.99" fill="#FFF8F1"/>
<path opacity="0.6" fill-rule="evenodd" clip-rule="evenodd" d="M1585.69 2104.99L1404.21 2000.18C1396.5 1995.73 1397.46 1987.95 1406.36 1982.81L1582.23 1881.25C1591.13 1876.11 1604.6 1875.55 1612.31 1880.01L1793.79 1984.82C1801.5 1989.27 1800.54 1997.05 1791.64 2002.19L1615.77 2103.75C1606.87 2108.89 1593.4 2109.45 1585.69 2104.99" fill="#CAFF01" fill-opacity="0.7"/>
<mask id="path-15-inside-1_403_3507" fill="white">
<path fill-rule="evenodd" clip-rule="evenodd" d="M1585.69 2052.99L1404.21 1948.18C1396.5 1943.73 1397.46 1935.95 1406.36 1930.81L1582.23 1829.25C1591.13 1824.11 1604.6 1823.55 1612.31 1828.01L1793.79 1932.82C1801.5 1937.27 1800.54 1945.05 1791.64 1950.19L1615.77 2051.75C1606.87 2056.89 1593.4 2057.45 1585.69 2052.99"/>
</mask>
<path d="M1404.21 1948.18L1403.2 1949.92L1403.2 1949.92L1404.21 1948.18ZM1406.36 1930.81L1405.36 1929.08L1405.36 1929.08L1406.36 1930.81ZM1582.23 1829.25L1581.23 1827.52L1581.23 1827.52L1582.23 1829.25ZM1612.31 1828.01L1613.31 1826.27L1613.31 1826.27L1612.31 1828.01ZM1793.79 1932.82L1794.8 1931.08L1794.8 1931.08L1793.79 1932.82ZM1791.64 1950.19L1792.64 1951.92L1792.64 1951.92L1791.64 1950.19ZM1615.77 2051.75L1614.77 2050.01L1614.77 2050.01L1615.77 2051.75ZM1586.69 2051.26L1405.21 1946.45L1403.2 1949.92L1584.69 2054.73L1586.69 2051.26ZM1405.21 1946.45C1401.83 1944.5 1400.78 1942.13 1401.04 1940C1401.32 1937.73 1403.2 1934.95 1407.36 1932.54L1405.36 1929.08C1400.63 1931.82 1397.57 1935.5 1397.07 1939.51C1396.55 1943.68 1398.87 1947.42 1403.2 1949.92L1405.21 1946.45ZM1407.36 1932.54L1583.23 1830.98L1581.23 1827.52L1405.36 1929.08L1407.36 1932.54ZM1583.23 1830.98C1587.35 1828.6 1592.62 1827.24 1597.8 1827.03C1603 1826.81 1607.88 1827.76 1611.31 1829.74L1613.31 1826.27C1609.02 1823.8 1603.32 1822.8 1597.63 1823.03C1591.92 1823.27 1586 1824.76 1581.23 1827.52L1583.23 1830.98ZM1611.31 1829.74L1792.79 1934.55L1794.8 1931.08L1613.31 1826.27L1611.31 1829.74ZM1792.79 1934.55C1796.17 1936.5 1797.22 1938.87 1796.96 1941C1796.68 1943.27 1794.8 1946.05 1790.64 1948.46L1792.64 1951.92C1797.37 1949.18 1800.43 1945.5 1800.93 1941.49C1801.45 1937.32 1799.13 1933.58 1794.8 1931.08L1792.79 1934.55ZM1790.64 1948.46L1614.77 2050.01L1616.77 2053.48L1792.64 1951.92L1790.64 1948.46ZM1614.77 2050.01C1610.65 2052.4 1605.38 2053.76 1600.2 2053.97C1595 2054.19 1590.12 2053.24 1586.69 2051.26L1584.69 2054.73C1588.98 2057.2 1594.68 2058.2 1600.37 2057.97C1606.08 2057.73 1612 2056.24 1616.77 2053.48L1614.77 2050.01Z" fill="#1C1A1A" mask="url(#path-15-inside-1_403_3507)"/>
<g filter="url(#filter1_d_403_3507)">
<path fill-rule="evenodd" clip-rule="evenodd" d="M1585.69 2741.99L1404.21 2637.18C1396.5 2632.73 1397.46 2624.95 1406.36 2619.81L1582.23 2518.25C1591.13 2513.11 1604.6 2512.55 1612.31 2517.01L1793.79 2621.82C1801.5 2626.27 1800.54 2634.05 1791.64 2639.19L1615.77 2740.75C1606.87 2745.89 1593.4 2746.45 1585.69 2741.99" fill="#1C1A1A" fill-opacity="0.01"/>
</g>
<path fill-rule="evenodd" clip-rule="evenodd" d="M1585.69 2689.99L1404.21 2585.18C1396.5 2580.73 1397.46 2572.95 1406.36 2567.81L1582.23 2466.25C1591.13 2461.11 1604.6 2460.55 1612.31 2465.01L1793.79 2569.82C1801.5 2574.27 1800.54 2582.05 1791.64 2587.19L1615.77 2688.75C1606.87 2693.89 1593.4 2694.45 1585.69 2689.99" fill="#FFF8F1"/>
<path opacity="0.6" fill-rule="evenodd" clip-rule="evenodd" d="M1585.69 2689.99L1404.21 2585.18C1396.5 2580.73 1397.46 2572.95 1406.36 2567.81L1582.23 2466.25C1591.13 2461.11 1604.6 2460.55 1612.31 2465.01L1793.79 2569.82C1801.5 2574.27 1800.54 2582.05 1791.64 2587.19L1615.77 2688.75C1606.87 2693.89 1593.4 2694.45 1585.69 2689.99" fill="#04FDD2" fill-opacity="0.7"/>
<mask id="path-20-inside-2_403_3507" fill="white">
<path fill-rule="evenodd" clip-rule="evenodd" d="M1585.69 2637.99L1404.21 2533.18C1396.5 2528.73 1397.46 2520.95 1406.36 2515.81L1582.23 2414.25C1591.13 2409.11 1604.6 2408.55 1612.31 2413.01L1793.79 2517.82C1801.5 2522.27 1800.54 2530.05 1791.64 2535.19L1615.77 2636.75C1606.87 2641.89 1593.4 2642.45 1585.69 2637.99"/>
</mask>
<path d="M1404.21 2533.18L1403.2 2534.92L1403.2 2534.92L1404.21 2533.18ZM1406.36 2515.81L1405.36 2514.08L1405.36 2514.08L1406.36 2515.81ZM1582.23 2414.25L1581.23 2412.52L1581.23 2412.52L1582.23 2414.25ZM1612.31 2413.01L1613.31 2411.27L1613.31 2411.27L1612.31 2413.01ZM1793.79 2517.82L1794.8 2516.08L1794.8 2516.08L1793.79 2517.82ZM1791.64 2535.19L1792.64 2536.92L1792.64 2536.92L1791.64 2535.19ZM1615.77 2636.75L1614.77 2635.01L1614.77 2635.01L1615.77 2636.75ZM1586.69 2636.26L1405.21 2531.45L1403.2 2534.92L1584.69 2639.73L1586.69 2636.26ZM1405.21 2531.45C1401.83 2529.5 1400.78 2527.13 1401.04 2525C1401.32 2522.73 1403.2 2519.95 1407.36 2517.54L1405.36 2514.08C1400.63 2516.82 1397.57 2520.5 1397.07 2524.51C1396.55 2528.68 1398.87 2532.42 1403.2 2534.92L1405.21 2531.45ZM1407.36 2517.54L1583.23 2415.98L1581.23 2412.52L1405.36 2514.08L1407.36 2517.54ZM1583.23 2415.98C1587.35 2413.6 1592.62 2412.24 1597.8 2412.03C1603 2411.81 1607.88 2412.76 1611.31 2414.74L1613.31 2411.27C1609.02 2408.8 1603.32 2407.8 1597.63 2408.03C1591.92 2408.27 1586 2409.76 1581.23 2412.52L1583.23 2415.98ZM1611.31 2414.74L1792.79 2519.55L1794.8 2516.08L1613.31 2411.27L1611.31 2414.74ZM1792.79 2519.55C1796.17 2521.5 1797.22 2523.87 1796.96 2526C1796.68 2528.27 1794.8 2531.05 1790.64 2533.46L1792.64 2536.92C1797.37 2534.18 1800.43 2530.5 1800.93 2526.49C1801.45 2522.32 1799.13 2518.58 1794.8 2516.08L1792.79 2519.55ZM1790.64 2533.46L1614.77 2635.01L1616.77 2638.48L1792.64 2536.92L1790.64 2533.46ZM1614.77 2635.01C1610.65 2637.4 1605.38 2638.76 1600.2 2638.97C1595 2639.19 1590.12 2638.24 1586.69 2636.26L1584.69 2639.73C1588.98 2642.2 1594.68 2643.2 1600.37 2642.97C1606.08 2642.73 1612 2641.24 1616.77 2638.48L1614.77 2635.01Z" fill="#1C1A1A" mask="url(#path-20-inside-2_403_3507)"/>
<g filter="url(#filter2_d_403_3507)">
<path fill-rule="evenodd" clip-rule="evenodd" d="M1585.69 985.994L1404.21 881.185C1396.5 876.732 1397.46 868.955 1406.36 863.813L1582.23 762.253C1591.13 757.112 1604.6 756.553 1612.31 761.006L1793.79 865.815C1801.5 870.268 1800.54 878.045 1791.64 883.187L1615.77 984.746C1606.87 989.888 1593.4 990.447 1585.69 985.994" fill="#1C1A1A" fill-opacity="0.01"/>
</g>
<path fill-rule="evenodd" clip-rule="evenodd" d="M1585.69 933.994L1404.21 829.185C1396.5 824.732 1397.46 816.955 1406.36 811.813L1582.23 710.253C1591.13 705.112 1604.6 704.553 1612.31 709.006L1793.79 813.815C1801.5 818.268 1800.54 826.045 1791.64 831.187L1615.77 932.746C1606.87 937.888 1593.4 938.447 1585.69 933.994" fill="#FFF8F1"/>
<path opacity="0.6" fill-rule="evenodd" clip-rule="evenodd" d="M1585.69 933.994L1404.21 829.185C1396.5 824.732 1397.46 816.955 1406.36 811.813L1582.23 710.253C1591.13 705.112 1604.6 704.553 1612.31 709.006L1793.79 813.815C1801.5 818.268 1800.54 826.045 1791.64 831.187L1615.77 932.746C1606.87 937.888 1593.4 938.447 1585.69 933.994" fill="#FE763C" fill-opacity="0.7"/>
<mask id="path-25-inside-3_403_3507" fill="white">
<path fill-rule="evenodd" clip-rule="evenodd" d="M1585.69 881.994L1404.21 777.185C1396.5 772.732 1397.46 764.955 1406.36 759.813L1582.23 658.253C1591.13 653.112 1604.6 652.553 1612.31 657.006L1793.79 761.815C1801.5 766.268 1800.54 774.045 1791.64 779.187L1615.77 880.746C1606.87 885.888 1593.4 886.447 1585.69 881.994"/>
</mask>
<path d="M1404.21 777.185L1403.2 778.917L1403.2 778.917L1404.21 777.185ZM1406.36 759.813L1405.36 758.081L1405.36 758.081L1406.36 759.813ZM1582.23 658.253L1581.23 656.521L1581.23 656.521L1582.23 658.253ZM1612.31 657.006L1613.31 655.274L1613.31 655.274L1612.31 657.006ZM1793.79 761.815L1794.8 760.083L1794.8 760.083L1793.79 761.815ZM1791.64 779.187L1792.64 780.919L1792.64 780.919L1791.64 779.187ZM1615.77 880.746L1614.77 879.014L1614.77 879.014L1615.77 880.746ZM1586.69 880.262L1405.21 775.453L1403.2 778.917L1584.69 883.726L1586.69 880.262ZM1405.21 775.453C1401.83 773.501 1400.78 771.125 1401.04 769.004C1401.32 766.727 1403.2 763.951 1407.36 761.545L1405.36 758.081C1400.63 760.817 1397.57 764.5 1397.07 768.51C1396.55 772.676 1398.87 776.415 1403.2 778.917L1405.21 775.453ZM1407.36 761.545L1583.23 659.985L1581.23 656.521L1405.36 758.081L1407.36 761.545ZM1583.23 659.985C1587.35 657.603 1592.62 656.245 1597.8 656.03C1603 655.815 1607.88 656.759 1611.31 658.738L1613.31 655.274C1609.02 652.8 1603.32 651.798 1597.63 652.034C1591.92 652.27 1586 653.761 1581.23 656.521L1583.23 659.985ZM1611.31 658.738L1792.79 763.547L1794.8 760.083L1613.31 655.274L1611.31 658.738ZM1792.79 763.547C1796.17 765.498 1797.22 767.875 1796.96 769.996C1796.68 772.273 1794.8 775.05 1790.64 777.455L1792.64 780.919C1797.37 778.183 1800.43 774.5 1800.93 770.489C1801.45 766.323 1799.13 762.584 1794.8 760.083L1792.79 763.547ZM1790.64 777.455L1614.77 879.014L1616.77 882.478L1792.64 780.919L1790.64 777.455ZM1614.77 879.014C1610.65 881.396 1605.38 882.755 1600.2 882.97C1595 883.186 1590.12 882.241 1586.69 880.262L1584.69 883.726C1588.98 886.2 1594.68 887.202 1600.37 886.966C1606.08 886.73 1612 885.238 1616.77 882.478L1614.77 879.014Z" fill="#1C1A1A" mask="url(#path-25-inside-3_403_3507)"/>
<g filter="url(#filter3_d_403_3507)">
<path fill-rule="evenodd" clip-rule="evenodd" d="M1586.69 1571.95L1405.21 1466.89C1397.5 1462.43 1398.46 1454.63 1407.36 1449.48L1583.23 1347.67C1592.13 1342.52 1605.6 1341.96 1613.31 1346.42L1794.79 1451.48C1802.5 1455.95 1801.54 1463.74 1792.64 1468.9L1616.77 1570.7C1607.87 1575.85 1594.4 1576.41 1586.69 1571.95" fill="#1C1A1A" fill-opacity="0.01"/>
</g>
<path fill-rule="evenodd" clip-rule="evenodd" d="M1585.69 1518.99L1404.21 1414.18C1396.5 1409.73 1397.46 1401.95 1406.36 1396.81L1582.23 1295.25C1591.13 1290.11 1604.6 1289.55 1612.31 1294.01L1793.79 1398.82C1801.5 1403.27 1800.54 1411.05 1791.64 1416.19L1615.77 1517.75C1606.87 1522.89 1593.4 1523.45 1585.69 1518.99" fill="#FFF8F1"/>
<path opacity="0.6" fill-rule="evenodd" clip-rule="evenodd" d="M1585.69 1518.99L1404.21 1414.18C1396.5 1409.73 1397.46 1401.95 1406.36 1396.81L1582.23 1295.25C1591.13 1290.11 1604.6 1289.55 1612.31 1294.01L1793.79 1398.82C1801.5 1403.27 1800.54 1411.05 1791.64 1416.19L1615.77 1517.75C1606.87 1522.89 1593.4 1523.45 1585.69 1518.99" fill="#0085FF" fill-opacity="0.7"/>
<mask id="path-30-inside-4_403_3507" fill="white">
<path fill-rule="evenodd" clip-rule="evenodd" d="M1586.69 1467.7L1405.21 1362.64C1397.5 1358.18 1398.46 1350.38 1407.36 1345.23L1583.23 1243.43C1592.13 1238.27 1605.6 1237.71 1613.31 1242.18L1794.79 1347.23C1802.5 1351.7 1801.54 1359.49 1792.64 1364.65L1616.77 1466.45C1607.87 1471.6 1594.4 1472.16 1586.69 1467.7"/>
</mask>
<path d="M1405.21 1362.64L1404.2 1364.37L1404.2 1364.37L1405.21 1362.64ZM1407.36 1345.23L1406.36 1343.5L1406.36 1343.5L1407.36 1345.23ZM1583.23 1243.43L1582.22 1241.69L1582.22 1241.69L1583.23 1243.43ZM1613.31 1242.18L1614.31 1240.44L1614.31 1240.44L1613.31 1242.18ZM1794.79 1347.23L1795.8 1345.5L1795.8 1345.5L1794.79 1347.23ZM1792.64 1364.65L1793.64 1366.38L1793.64 1366.38L1792.64 1364.65ZM1616.77 1466.45L1615.77 1464.72L1615.77 1464.72L1616.77 1466.45ZM1587.7 1465.97L1406.21 1360.91L1404.2 1364.37L1585.69 1469.43L1587.7 1465.97ZM1406.21 1360.91C1402.83 1358.95 1401.78 1356.57 1402.04 1354.44C1402.32 1352.15 1404.2 1349.37 1408.37 1346.96L1406.36 1343.5C1401.62 1346.24 1398.57 1349.93 1398.07 1353.95C1397.55 1358.12 1399.87 1361.86 1404.2 1364.37L1406.21 1360.91ZM1408.37 1346.96L1584.23 1245.16L1582.22 1241.69L1406.36 1343.5L1408.37 1346.96ZM1584.23 1245.16C1588.35 1242.77 1593.62 1241.41 1598.8 1241.19C1604 1240.98 1608.88 1241.92 1612.3 1243.91L1614.31 1240.44C1610.02 1237.96 1604.32 1236.96 1598.63 1237.2C1592.92 1237.43 1587 1238.93 1582.22 1241.69L1584.23 1245.16ZM1612.3 1243.91L1793.79 1348.97L1795.8 1345.5L1614.31 1240.44L1612.3 1243.91ZM1793.79 1348.97C1797.17 1350.92 1798.22 1353.3 1797.96 1355.44C1797.68 1357.72 1795.8 1360.51 1791.63 1362.92L1793.64 1366.38C1798.38 1363.64 1801.43 1359.94 1801.93 1355.93C1802.45 1351.76 1800.13 1348.01 1795.8 1345.5L1793.79 1348.97ZM1791.63 1362.92L1615.77 1464.72L1617.78 1468.18L1793.64 1366.38L1791.63 1362.92ZM1615.77 1464.72C1611.65 1467.11 1606.38 1468.47 1601.2 1468.68C1596 1468.9 1591.12 1467.95 1587.7 1465.97L1585.69 1469.43C1589.98 1471.91 1595.68 1472.92 1601.37 1472.68C1607.08 1472.44 1613 1470.95 1617.78 1468.18L1615.77 1464.72Z" fill="#1C1A1A" mask="url(#path-30-inside-4_403_3507)"/>
<path d="M1464.48 1035H1460.48V1062.85C1460.48 1064.55 1459.03 1066 1457.33 1066H1447.68C1445.93 1066 1444.48 1064.55 1444.48 1062.85V1035H1440.48V1062.85C1440.48 1066.8 1443.68 1070 1447.68 1070H1457.33C1461.28 1070 1464.48 1066.8 1464.48 1062.85V1035ZM1493.53 1061.5C1493.53 1050.4 1473.48 1051.2 1473.48 1043.45C1473.48 1041 1475.53 1039 1477.93 1039H1485.03C1487.48 1039 1489.53 1041 1489.53 1043.4H1493.53C1493.53 1038.75 1489.73 1035 1485.03 1035H1477.93C1473.28 1035 1469.48 1038.8 1469.48 1043.45C1469.48 1054.6 1489.53 1053.75 1489.53 1061.5C1489.53 1064 1487.58 1066 1485.08 1066H1477.98C1475.53 1066 1473.48 1064 1473.48 1061.55H1469.48C1469.48 1066.2 1473.28 1070 1477.98 1070H1485.03C1489.73 1070 1493.53 1066.2 1493.53 1061.5ZM1522.49 1050.5H1502.49V1039H1522.49V1035H1498.49V1070H1522.49V1066H1502.49V1054.5H1522.49V1050.5ZM1551.49 1043.45C1551.49 1038.8 1547.74 1035 1543.04 1035H1527.49V1070H1531.49V1054.5H1538.34L1547.49 1065.25V1070H1551.49V1065.5C1551.49 1064.5 1551.49 1063.7 1550.54 1062.65L1543.49 1054.5C1547.94 1054.3 1551.49 1050.6 1551.49 1046.05V1043.45ZM1547.49 1046.05C1547.49 1048.5 1545.49 1050.5 1543.04 1050.5H1531.49V1039H1543.04C1545.49 1039 1547.49 1041 1547.49 1043.45V1046.05ZM1609.5 1035H1605.5L1597.45 1046.35L1589.55 1035H1585.5V1070H1589.5V1042.15L1595.1 1050.25C1595.4 1050.75 1595.5 1051.55 1595.5 1052.2V1054.5H1599.5V1052.2C1599.5 1051.55 1599.6 1050.6 1599.8 1050.25L1605.5 1042.1V1070H1609.5V1035ZM1638.5 1042.2C1638.5 1038.25 1635.3 1035 1631.35 1035H1621.7C1617.7 1035 1614.5 1038.25 1614.5 1042.2V1062.85C1614.5 1066.8 1617.7 1070 1621.7 1070H1631.35C1635.3 1070 1638.5 1066.8 1638.5 1062.85V1042.2ZM1634.5 1062.85C1634.5 1064.55 1633.05 1066 1631.35 1066H1621.7C1619.95 1066 1618.5 1064.55 1618.5 1062.85V1042.2C1618.5 1040.45 1619.95 1039 1621.7 1039H1631.35C1633.05 1039 1634.5 1040.45 1634.5 1042.2V1062.85ZM1667.51 1042.15C1667.51 1038.2 1664.31 1035 1660.36 1035H1643.51V1070H1660.36C1664.31 1070 1667.51 1066.8 1667.51 1062.85V1042.15ZM1663.51 1062.85C1663.51 1064.55 1662.11 1066 1660.36 1066H1647.51V1039H1660.36C1662.11 1039 1663.51 1040.45 1663.51 1042.2V1062.85ZM1696.51 1035H1692.51V1062.85C1692.51 1064.55 1691.06 1066 1689.36 1066H1679.71C1677.96 1066 1676.51 1064.55 1676.51 1062.85V1035H1672.51V1062.85C1672.51 1066.8 1675.71 1070 1679.71 1070H1689.36C1693.31 1070 1696.51 1066.8 1696.51 1062.85V1035ZM1725.51 1066H1705.51V1035H1701.51V1070H1725.51V1066ZM1754.52 1050.5H1734.52V1039H1754.52V1035H1730.52V1070H1754.52V1066H1734.52V1054.5H1754.52V1050.5Z" fill="#1C1A1A"/>
<path d="M1454.98 1621H1450.98L1442.93 1632.35L1435.03 1621H1430.98V1656H1434.98V1628.15L1440.58 1636.25C1440.88 1636.75 1440.98 1637.55 1440.98 1638.2V1640.5H1444.98V1638.2C1444.98 1637.55 1445.08 1636.6 1445.28 1636.25L1450.98 1628.1V1656H1454.98V1621ZM1483.98 1636.5H1463.98V1625H1483.98V1621H1459.98V1656H1483.98V1652H1463.98V1640.5H1483.98V1636.5ZM1512.98 1628.15C1512.98 1624.2 1509.78 1621 1505.83 1621H1488.98V1656H1505.83C1509.78 1656 1512.98 1652.8 1512.98 1648.85V1628.15ZM1508.98 1648.85C1508.98 1650.55 1507.58 1652 1505.83 1652H1492.98V1625H1505.83C1507.58 1625 1508.98 1626.45 1508.98 1628.2V1648.85ZM1541.99 1652H1531.99V1625H1541.99V1621H1517.99V1625H1527.99V1652H1517.99V1656H1541.99V1652ZM1556.19 1621C1554.89 1621 1554.59 1621.5 1554.09 1622.55L1547.24 1637C1546.99 1637.6 1546.99 1638.5 1546.99 1639.95V1656H1550.99V1648H1566.99V1656H1570.99V1639.95C1570.99 1638.6 1571.04 1637.6 1570.74 1637L1563.89 1622.55C1563.39 1621.5 1563.04 1621 1561.79 1621H1556.19ZM1566.99 1644H1550.99V1638.5L1557.29 1625H1560.84L1566.99 1638.5V1644ZM1629 1621H1625L1616.95 1632.35L1609.05 1621H1605V1656H1609V1628.15L1614.6 1636.25C1614.9 1636.75 1615 1637.55 1615 1638.2V1640.5H1619V1638.2C1619 1637.55 1619.1 1636.6 1619.3 1636.25L1625 1628.1V1656H1629V1621ZM1658 1628.2C1658 1624.25 1654.8 1621 1650.85 1621H1641.2C1637.2 1621 1634 1624.25 1634 1628.2V1648.85C1634 1652.8 1637.2 1656 1641.2 1656H1650.85C1654.8 1656 1658 1652.8 1658 1648.85V1628.2ZM1654 1648.85C1654 1650.55 1652.55 1652 1650.85 1652H1641.2C1639.45 1652 1638 1650.55 1638 1648.85V1628.2C1638 1626.45 1639.45 1625 1641.2 1625H1650.85C1652.55 1625 1654 1626.45 1654 1628.2V1648.85ZM1687.01 1628.15C1687.01 1624.2 1683.81 1621 1679.86 1621H1663.01V1656H1679.86C1683.81 1656 1687.01 1652.8 1687.01 1648.85V1628.15ZM1683.01 1648.85C1683.01 1650.55 1681.61 1652 1679.86 1652H1667.01V1625H1679.86C1681.61 1625 1683.01 1626.45 1683.01 1628.2V1648.85ZM1716.01 1621H1712.01V1648.85C1712.01 1650.55 1710.56 1652 1708.86 1652H1699.21C1697.46 1652 1696.01 1650.55 1696.01 1648.85V1621H1692.01V1648.85C1692.01 1652.8 1695.21 1656 1699.21 1656H1708.86C1712.81 1656 1716.01 1652.8 1716.01 1648.85V1621ZM1745.02 1652H1725.02V1621H1721.02V1656H1745.02V1652ZM1774.02 1636.5H1754.02V1625H1774.02V1621H1750.02V1656H1774.02V1652H1754.02V1640.5H1774.02V1636.5Z" fill="#1C1A1A"/>
<path d="M1493.48 2206H1489.48L1481.43 2217.35L1473.53 2206H1469.48V2241H1473.48V2213.15L1479.08 2221.25C1479.38 2221.75 1479.48 2222.55 1479.48 2223.2V2225.5H1483.48V2223.2C1483.48 2222.55 1483.58 2221.6 1483.78 2221.25L1489.48 2213.1V2241H1493.48V2206ZM1522.49 2237H1502.49V2206H1498.49V2241H1522.49V2237ZM1580.49 2206H1576.49L1568.44 2217.35L1560.54 2206H1556.49V2241H1560.49V2213.15L1566.09 2221.25C1566.39 2221.75 1566.49 2222.55 1566.49 2223.2V2225.5H1570.49V2223.2C1570.49 2222.55 1570.59 2221.6 1570.79 2221.25L1576.49 2213.1V2241H1580.49V2206ZM1609.5 2213.2C1609.5 2209.25 1606.3 2206 1602.35 2206H1592.7C1588.7 2206 1585.5 2209.25 1585.5 2213.2V2233.85C1585.5 2237.8 1588.7 2241 1592.7 2241H1602.35C1606.3 2241 1609.5 2237.8 1609.5 2233.85V2213.2ZM1605.5 2233.85C1605.5 2235.55 1604.05 2237 1602.35 2237H1592.7C1590.95 2237 1589.5 2235.55 1589.5 2233.85V2213.2C1589.5 2211.45 1590.95 2210 1592.7 2210H1602.35C1604.05 2210 1605.5 2211.45 1605.5 2213.2V2233.85ZM1638.5 2213.15C1638.5 2209.2 1635.3 2206 1631.35 2206H1614.5V2241H1631.35C1635.3 2241 1638.5 2237.8 1638.5 2233.85V2213.15ZM1634.5 2233.85C1634.5 2235.55 1633.1 2237 1631.35 2237H1618.5V2210H1631.35C1633.1 2210 1634.5 2211.45 1634.5 2213.2V2233.85ZM1667.51 2206H1663.51V2233.85C1663.51 2235.55 1662.06 2237 1660.36 2237H1650.71C1648.96 2237 1647.51 2235.55 1647.51 2233.85V2206H1643.51V2233.85C1643.51 2237.8 1646.71 2241 1650.71 2241H1660.36C1664.31 2241 1667.51 2237.8 1667.51 2233.85V2206ZM1696.51 2237H1676.51V2206H1672.51V2241H1696.51V2237ZM1725.51 2221.5H1705.51V2210H1725.51V2206H1701.51V2241H1725.51V2237H1705.51V2225.5H1725.51V2221.5Z" fill="#1C1A1A"/>
<path d="M1391.67 2791C1390.37 2791 1390.07 2791.5 1389.57 2792.55L1382.72 2807C1382.47 2807.6 1382.47 2808.5 1382.47 2809.95V2826H1386.47V2818H1402.47V2826H1406.47V2809.95C1406.47 2808.6 1406.52 2807.6 1406.22 2807L1399.37 2792.55C1398.87 2791.5 1398.52 2791 1397.27 2791H1391.67ZM1402.47 2814H1386.47V2808.5L1392.77 2795H1396.32L1402.47 2808.5V2814ZM1435.47 2791H1431.47V2818L1415.47 2791H1411.47V2826H1415.47V2799L1431.47 2826H1435.47V2791ZM1449.68 2791C1448.38 2791 1448.08 2791.5 1447.58 2792.55L1440.73 2807C1440.48 2807.6 1440.48 2808.5 1440.48 2809.95V2826H1444.48V2818H1460.48V2826H1464.48V2809.95C1464.48 2808.6 1464.53 2807.6 1464.23 2807L1457.38 2792.55C1456.88 2791.5 1456.53 2791 1455.28 2791H1449.68ZM1460.48 2814H1444.48V2808.5L1450.78 2795H1454.33L1460.48 2808.5V2814ZM1493.48 2822H1473.48V2791H1469.48V2826H1493.48V2822ZM1502.49 2795.7V2791H1498.49V2794.95C1498.49 2796.55 1498.44 2797.5 1499.84 2799.15L1508.49 2809.4V2826H1512.49V2809.4L1521.09 2799.15C1522.49 2797.5 1522.44 2796.55 1522.44 2794.95V2791H1518.49V2795.7L1510.49 2805.25L1502.49 2795.7ZM1551.54 2817.5C1551.54 2806.4 1531.49 2807.2 1531.49 2799.45C1531.49 2797 1533.54 2795 1535.94 2795H1543.04C1545.49 2795 1547.54 2797 1547.54 2799.4H1551.54C1551.54 2794.75 1547.74 2791 1543.04 2791H1535.94C1531.29 2791 1527.49 2794.8 1527.49 2799.45C1527.49 2810.6 1547.54 2809.75 1547.54 2817.5C1547.54 2820 1545.59 2822 1543.09 2822H1535.99C1533.54 2822 1531.49 2820 1531.49 2817.55H1527.49C1527.49 2822.2 1531.29 2826 1535.99 2826H1543.04C1547.74 2826 1551.54 2822.2 1551.54 2817.5ZM1580.49 2822H1570.49V2795H1580.49V2791H1556.49V2795H1566.49V2822H1556.49V2826H1580.49V2822ZM1609.55 2817.5C1609.55 2806.4 1589.5 2807.2 1589.5 2799.45C1589.5 2797 1591.55 2795 1593.95 2795H1601.05C1603.5 2795 1605.55 2797 1605.55 2799.4H1609.55C1609.55 2794.75 1605.75 2791 1601.05 2791H1593.95C1589.3 2791 1585.5 2794.8 1585.5 2799.45C1585.5 2810.6 1605.55 2809.75 1605.55 2817.5C1605.55 2820 1603.6 2822 1601.1 2822H1594C1591.55 2822 1589.5 2820 1589.5 2817.55H1585.5C1585.5 2822.2 1589.3 2826 1594 2826H1601.05C1605.75 2826 1609.55 2822.2 1609.55 2817.5ZM1667.51 2791H1663.51L1655.46 2802.35L1647.56 2791H1643.51V2826H1647.51V2798.15L1653.11 2806.25C1653.41 2806.75 1653.51 2807.55 1653.51 2808.2V2810.5H1657.51V2808.2C1657.51 2807.55 1657.61 2806.6 1657.81 2806.25L1663.51 2798.1V2826H1667.51V2791ZM1696.51 2798.2C1696.51 2794.25 1693.31 2791 1689.36 2791H1679.71C1675.71 2791 1672.51 2794.25 1672.51 2798.2V2818.85C1672.51 2822.8 1675.71 2826 1679.71 2826H1689.36C1693.31 2826 1696.51 2822.8 1696.51 2818.85V2798.2ZM1692.51 2818.85C1692.51 2820.55 1691.06 2822 1689.36 2822H1679.71C1677.96 2822 1676.51 2820.55 1676.51 2818.85V2798.2C1676.51 2796.45 1677.96 2795 1679.71 2795H1689.36C1691.06 2795 1692.51 2796.45 1692.51 2798.2V2818.85ZM1725.51 2798.15C1725.51 2794.2 1722.31 2791 1718.36 2791H1701.51V2826H1718.36C1722.31 2826 1725.51 2822.8 1725.51 2818.85V2798.15ZM1721.51 2818.85C1721.51 2820.55 1720.11 2822 1718.36 2822H1705.51V2795H1718.36C1720.11 2795 1721.51 2796.45 1721.51 2798.2V2818.85ZM1754.52 2791H1750.52V2818.85C1750.52 2820.55 1749.07 2822 1747.37 2822H1737.72C1735.97 2822 1734.52 2820.55 1734.52 2818.85V2791H1730.52V2818.85C1730.52 2822.8 1733.72 2826 1737.72 2826H1747.37C1751.32 2826 1754.52 2822.8 1754.52 2818.85V2791ZM1783.52 2822H1763.52V2791H1759.52V2826H1783.52V2822ZM1812.53 2806.5H1792.53V2795H1812.53V2791H1788.53V2826H1812.53V2822H1792.53V2810.5H1812.53V2806.5Z" fill="#1C1A1A"/>
<path d="M1958 1687H1922C1919.79 1687 1918 1688.79 1918 1691V1955.5C1918 1957.71 1916.21 1959.5 1914 1959.5L1878 1959.5" stroke="#1C1A1A" stroke-width="2" stroke-linecap="round" stroke-linejoin="round"/>
<path d="M1958 2253H1922C1919.79 2253 1918 2251.21 1918 2249V1964C1918 1961.79 1916.21 1960 1914 1960L1878 1960" stroke="#1C1A1A" stroke-width="2" stroke-linecap="round" stroke-linejoin="round"/>
<path d="M1327.44 73H1331.44V72.5H1331.94V69.5H1331.44V68H1330.94V66.5H1329.94V65.5H1328.44V64.5H1326.94V63.5H1325.44V63H1323.44V62.5H1317.44V63H1315.44V63.5H1313.94V64.5H1312.44V65.5H1311.44V66.5H1310.44V68H1309.44V70H1308.94V75.5H1309.44V77.5H1310.44V79H1311.44V80H1312.44V81H1314.44V82H1316.44V82.5H1319.94V83H1323.44V83.5H1325.44V84H1326.94V85H1327.94V86.5H1328.44V89.5H1327.94V91H1326.94V92H1325.44V93H1323.94V93.5H1318.44V93H1316.94V92H1315.44V91H1314.44V89.5H1313.94V87H1313.44V86.5H1308.94V87H1308.44V90.5H1308.94V92H1309.44V93H1309.94V94H1310.94V95H1311.94V96H1313.44V97H1315.44V98H1317.44V98.5H1324.94V98H1326.94V97.5H1328.44V96.5H1329.94V95.5H1330.94V94.5H1331.94V93H1332.94V91H1333.44V85H1332.94V83H1331.94V81.5H1330.44V80.5H1328.94V79.5H1326.94V78.5H1324.94V78H1321.44V77.5H1318.44V77H1316.44V76.5H1315.44V75.5H1314.44V74H1313.94V71H1314.44V70H1315.44V69H1316.44V68H1318.44V67.5H1322.44V68H1324.44V69H1325.44V70H1326.44V71H1326.94V72.5H1327.44V73ZM1349.95 98H1353.95V97.5H1354.45V80H1355.45V78.5H1356.45V77H1357.45V75.5H1358.45V74H1359.45V72.5H1360.45V71H1361.45V69.5H1362.45V68H1363.45V66.5H1364.45V65.5H1364.95V63.5H1364.45V63H1359.95V63.5H1359.45V65H1358.45V66.5H1357.45V68H1356.45V69.5H1355.45V71H1354.45V72.5H1353.45V74H1352.45V75.5H1351.45V74H1350.45V72.5H1349.45V71H1348.45V69.5H1347.45V68H1346.45V66.5H1345.45V65H1344.45V63.5H1343.95V63H1339.45V63.5H1338.95V65.5H1339.45V66.5H1340.45V68H1341.45V69.5H1342.45V71H1343.45V72.5H1344.45V74H1345.45V75.5H1346.45V77H1347.45V78.5H1348.45V80H1349.45V97.5H1349.95V98ZM1389.46 73H1393.46V72.5H1393.96V69.5H1393.46V68H1392.96V66.5H1391.96V65.5H1390.46V64.5H1388.96V63.5H1387.46V63H1385.46V62.5H1379.46V63H1377.46V63.5H1375.96V64.5H1374.46V65.5H1373.46V66.5H1372.46V68H1371.46V70H1370.96V75.5H1371.46V77.5H1372.46V79H1373.46V80H1374.46V81H1376.46V82H1378.46V82.5H1381.96V83H1385.46V83.5H1387.46V84H1388.96V85H1389.96V86.5H1390.46V89.5H1389.96V91H1388.96V92H1387.46V93H1385.96V93.5H1380.46V93H1378.96V92H1377.46V91H1376.46V89.5H1375.96V87H1375.46V86.5H1370.96V87H1370.46V90.5H1370.96V92H1371.46V93H1371.96V94H1372.96V95H1373.96V96H1375.46V97H1377.46V98H1379.46V98.5H1386.96V98H1388.96V97.5H1390.46V96.5H1391.96V95.5H1392.96V94.5H1393.96V93H1394.96V91H1395.46V85H1394.96V83H1393.96V81.5H1392.46V80.5H1390.96V79.5H1388.96V78.5H1386.96V78H1383.46V77.5H1380.46V77H1378.46V76.5H1377.46V75.5H1376.46V74H1375.96V71H1376.46V70H1377.46V69H1378.46V68H1380.46V67.5H1384.46V68H1386.46V69H1387.46V70H1388.46V71H1388.96V72.5H1389.46V73ZM1410.96 68.5H1411.46V97.5H1411.96V98H1415.96V97.5H1416.46V68.5H1416.96V68H1424.96V67.5H1425.46V63.5H1424.96V63H1402.96V63.5H1402.46V67.5H1402.96V68H1410.96V68.5ZM1438.47 68.5H1438.97V68H1455.97V67.5H1456.47V63.5H1455.97V63H1433.97V63.5H1433.47V97.5H1433.97V98H1455.97V97.5H1456.47V93.5H1455.97V93H1438.97V92.5H1438.47V83.5H1438.97V83H1453.47V82.5H1453.97V78.5H1453.47V78H1438.97V77.5H1438.47V68.5ZM1475.47 88.5H1474.97V85.5H1474.47V82H1473.97V78.5H1473.47V75H1472.97V72H1472.47V68.5H1471.97V65H1471.47V63.5H1470.97V63H1462.47V63.5H1461.97V97.5H1462.47V98H1466.47V97.5H1466.97V68H1467.97V71.5H1468.47V75H1468.97V78H1469.47V81.5H1469.97V85H1470.47V88H1470.97V91.5H1471.47V95H1471.97V97.5H1472.47V98H1479.47V97.5H1479.97V95H1480.47V91.5H1480.97V88H1481.47V85H1481.97V81.5H1482.47V78H1482.97V75H1483.47V71.5H1483.97V68H1484.97V97.5H1485.47V98H1489.47V97.5H1489.97V63.5H1489.47V63H1480.97V63.5H1480.47V65H1479.97V68.5H1479.47V72H1478.97V75H1478.47V78.5H1477.97V82H1477.47V85.5H1476.97V88.5H1476.47V93H1475.47V88.5ZM1524.49 75.5V85.5H1524.99V88.5H1525.99V91H1526.99V92.5H1527.99V94H1528.99V95H1529.99V96H1531.49V97H1533.49V98H1535.99V98.5H1540.99V98H1543.49V97H1545.49V96H1546.99V95.5H1547.99V94.5H1548.99V93.5H1549.99V92.5H1550.49V91H1550.99V89.5H1551.49V87H1550.99V86.5H1546.49V87H1545.99V88.5H1545.49V90H1544.49V91H1543.49V92H1541.99V93H1540.49V93.5H1536.49V93H1534.99V92H1533.49V91H1532.49V89.5H1531.49V87.5H1530.49V85H1529.99V76H1530.49V73.5H1531.49V71.5H1532.49V70H1533.49V69H1534.99V68H1536.49V67.5H1540.49V68H1541.99V69H1543.49V70H1544.49V71H1545.49V72.5H1545.99V74H1546.49V74.5H1550.99V74H1551.49V71.5H1550.99V70H1550.49V68.5H1549.99V67.5H1548.99V66.5H1547.99V65.5H1546.99V65H1545.49V64H1543.49V63H1540.99V62.5H1535.99V63H1533.49V64H1531.49V65H1529.99V66H1528.99V67H1527.99V68.5H1526.99V70H1525.99V72.5H1524.99V75.5H1524.49ZM1581.99 75.5V72.5H1580.99V70H1579.99V68.5H1578.99V67H1577.99V66H1576.99V65H1575.49V64H1573.49V63H1570.99V62.5H1566.99V63H1564.49V64H1562.49V65H1560.99V66H1559.99V67H1558.99V68.5H1557.99V70H1556.99V72.5H1555.99V75.5H1555.49V85.5H1555.99V88.5H1556.99V91H1557.99V92.5H1558.99V94H1559.99V95H1560.99V96H1562.49V97H1564.49V98H1566.99V98.5H1570.99V98H1573.49V97H1575.49V96H1576.99V95H1577.99V94H1578.99V92.5H1579.99V91H1580.99V88.5H1581.99V85.5H1582.49V75.5H1581.99ZM1567.49 93H1565.99V92H1564.49V91H1563.49V89.5H1562.49V87.5H1561.49V85H1560.99V76H1561.49V73.5H1562.49V71.5H1563.49V70H1564.49V69H1565.99V68H1567.49V67.5H1570.49V68H1571.99V69H1573.49V70H1574.49V71.5H1575.49V73.5H1576.49V76H1576.99V85H1576.49V87.5H1575.49V89.5H1574.49V91H1573.49V92H1571.99V93H1570.49V93.5H1567.49V93ZM1613 63.5H1612.5V63H1608.5V63.5H1608V87H1607V85.5H1606V84H1605V82.5H1604V81H1603V79.5H1602V78H1601V76.5H1600V75H1599V73.5H1598V72H1597V70.5H1596V69H1595V67.5H1594V66H1593V64.5H1592V63.5H1591.5V63H1587.5V63.5H1587V97.5H1587.5V98H1591.5V97.5H1592V73.5H1593V75H1594V76.5H1595V78H1596V79.5H1597V81H1598V82.5H1599V84H1600V85.5H1601V87H1602V88.5H1603V90H1604V91.5H1605V93H1606V94.5H1607V96H1608V97.5H1608.5V98H1612.5V97.5H1613V63.5ZM1637.5 73H1641.5V72.5H1642V69.5H1641.5V68H1641V66.5H1640V65.5H1638.5V64.5H1637V63.5H1635.5V63H1633.5V62.5H1627.5V63H1625.5V63.5H1624V64.5H1622.5V65.5H1621.5V66.5H1620.5V68H1619.5V70H1619V75.5H1619.5V77.5H1620.5V79H1621.5V80H1622.5V81H1624.5V82H1626.5V82.5H1630V83H1633.5V83.5H1635.5V84H1637V85H1638V86.5H1638.5V89.5H1638V91H1637V92H1635.5V93H1634V93.5H1628.5V93H1627V92H1625.5V91H1624.5V89.5H1624V87H1623.5V86.5H1619V87H1618.5V90.5H1619V92H1619.5V93H1620V94H1621V95H1622V96H1623.5V97H1625.5V98H1627.5V98.5H1635V98H1637V97.5H1638.5V96.5H1640V95.5H1641V94.5H1642V93H1643V91H1643.5V85H1643V83H1642V81.5H1640.5V80.5H1639V79.5H1637V78.5H1635V78H1631.5V77.5H1628.5V77H1626.5V76.5H1625.5V75.5H1624.5V74H1624V71H1624.5V70H1625.5V69H1626.5V68H1628.5V67.5H1632.5V68H1634.5V69H1635.5V70H1636.5V71H1637V72.5H1637.5V73ZM1659.01 68.5H1659.51V97.5H1660.01V98H1664.01V97.5H1664.51V68.5H1665.01V68H1673.01V67.5H1673.51V63.5H1673.01V63H1651.01V63.5H1650.51V67.5H1651.01V68H1659.01V68.5ZM1681.51 97.5V98H1685.51V97.5H1686.01V86H1686.51V85.5H1687.51V86.5H1688.51V87.5H1689.51V88.5H1690.51V89.5H1691.51V90.5H1692.51V91.5H1693.51V92.5H1694.51V93.5H1695.51V94.5H1696.51V95.5H1697.51V96.5H1698.51V97.5H1699.01V98H1704.51V97.5H1705.01V96.5H1704.01V95.5H1703.01V94.5H1702.01V93.5H1701.01V92.5H1700.01V91.5H1699.01V90.5H1698.01V89.5H1697.01V88.5H1696.01V87.5H1695.01V86.5H1694.01V85.5H1694.51V85H1696.01V84.5H1698.01V84H1699.51V83H1700.51V82H1701.51V81H1702.51V79.5H1703.51V77.5H1704.01V70.5H1703.51V68.5H1702.51V67H1701.51V66H1700.51V65H1699.51V64H1698.01V63.5H1696.01V63H1681.51V63.5H1681.01V97.5H1681.51ZM1686.51 79.5H1686.01V68.5H1686.51V68H1694.51V68.5H1696.01V69.5H1697.01V70.5H1698.01V72H1698.51V76H1698.01V77.5H1697.01V78.5H1696.01V79.5H1694.51V80H1686.51V79.5ZM1726.02 93.5H1722.02V93H1720.52V92H1719.52V91H1718.52V89.5H1718.02V88H1717.52V63.5H1717.02V63H1713.02V63.5H1712.52V89H1713.02V91H1713.52V92.5H1714.52V94H1715.52V95H1716.52V96H1717.52V97H1719.02V98H1721.02V98.5H1727.02V98H1729.02V97H1730.52V96H1731.52V95H1732.52V94H1733.52V92.5H1734.52V91H1735.02V89H1735.52V63.5H1735.02V63H1731.02V63.5H1730.52V88H1730.02V89.5H1729.52V91H1728.52V92H1727.52V93H1726.02V93.5ZM1741.53 75.5V85.5H1742.03V88.5H1743.03V91H1744.03V92.5H1745.03V94H1746.03V95H1747.03V96H1748.53V97H1750.53V98H1753.03V98.5H1758.03V98H1760.53V97H1762.53V96H1764.03V95.5H1765.03V94.5H1766.03V93.5H1767.03V92.5H1767.53V91H1768.03V89.5H1768.53V87H1768.03V86.5H1763.53V87H1763.03V88.5H1762.53V90H1761.53V91H1760.53V92H1759.03V93H1757.53V93.5H1753.53V93H1752.03V92H1750.53V91H1749.53V89.5H1748.53V87.5H1747.53V85H1747.03V76H1747.53V73.5H1748.53V71.5H1749.53V70H1750.53V69H1752.03V68H1753.53V67.5H1757.53V68H1759.03V69H1760.53V70H1761.53V71H1762.53V72.5H1763.03V74H1763.53V74.5H1768.03V74H1768.53V71.5H1768.03V70H1767.53V68.5H1767.03V67.5H1766.03V66.5H1765.03V65.5H1764.03V65H1762.53V64H1760.53V63H1758.03V62.5H1753.03V63H1750.53V64H1748.53V65H1747.03V66H1746.03V67H1745.03V68.5H1744.03V70H1743.03V72.5H1742.03V75.5H1741.53ZM1783.03 68.5H1783.53V97.5H1784.03V98H1788.03V97.5H1788.53V68.5H1789.03V68H1797.03V67.5H1797.53V63.5H1797.03V63H1775.03V63.5H1774.53V67.5H1775.03V68H1783.03V68.5ZM1806.54 97.5H1807.04V98H1827.04V97.5H1827.54V93.5H1827.04V93H1820.04V92.5H1819.54V68.5H1820.04V68H1827.04V67.5H1827.54V63.5H1827.04V63H1807.04V63.5H1806.54V67.5H1807.04V68H1814.04V68.5H1814.54V92.5H1814.04V93H1807.04V93.5H1806.54V97.5ZM1861.04 75.5V72.5H1860.04V70H1859.04V68.5H1858.04V67H1857.04V66H1856.04V65H1854.54V64H1852.54V63H1850.04V62.5H1846.04V63H1843.54V64H1841.54V65H1840.04V66H1839.04V67H1838.04V68.5H1837.04V70H1836.04V72.5H1835.04V75.5H1834.54V85.5H1835.04V88.5H1836.04V91H1837.04V92.5H1838.04V94H1839.04V95H1840.04V96H1841.54V97H1843.54V98H1846.04V98.5H1850.04V98H1852.54V97H1854.54V96H1856.04V95H1857.04V94H1858.04V92.5H1859.04V91H1860.04V88.5H1861.04V85.5H1861.54V75.5H1861.04ZM1846.54 93H1845.04V92H1843.54V91H1842.54V89.5H1841.54V87.5H1840.54V85H1840.04V76H1840.54V73.5H1841.54V71.5H1842.54V70H1843.54V69H1845.04V68H1846.54V67.5H1849.54V68H1851.04V69H1852.54V70H1853.54V71.5H1854.54V73.5H1855.54V76H1856.04V85H1855.54V87.5H1854.54V89.5H1853.54V91H1852.54V92H1851.04V93H1849.54V93.5H1846.54V93ZM1892.05 63.5H1891.55V63H1887.55V63.5H1887.05V87H1886.05V85.5H1885.05V84H1884.05V82.5H1883.05V81H1882.05V79.5H1881.05V78H1880.05V76.5H1879.05V75H1878.05V73.5H1877.05V72H1876.05V70.5H1875.05V69H1874.05V67.5H1873.05V66H1872.05V64.5H1871.05V63.5H1870.55V63H1866.55V63.5H1866.05V97.5H1866.55V98H1870.55V97.5H1871.05V73.5H1872.05V75H1873.05V76.5H1874.05V78H1875.05V79.5H1876.05V81H1877.05V82.5H1878.05V84H1879.05V85.5H1880.05V87H1881.05V88.5H1882.05V90H1883.05V91.5H1884.05V93H1885.05V94.5H1886.05V96H1887.05V97.5H1887.55V98H1891.55V97.5H1892.05V63.5Z" fill="#1C1A1A"/>
<path d="M202.973 1639H198.973L190.923 1650.35L183.023 1639H178.973V1674H182.973V1646.15L188.573 1654.25C188.873 1654.75 188.973 1655.55 188.973 1656.2V1658.5H192.973V1656.2C192.973 1655.55 193.073 1654.6 193.273 1654.25L198.973 1646.1V1674H202.973V1639ZM231.977 1646.2C231.977 1642.25 228.777 1639 224.827 1639H215.177C211.177 1639 207.977 1642.25 207.977 1646.2V1666.85C207.977 1670.8 211.177 1674 215.177 1674H224.827C228.777 1674 231.977 1670.8 231.977 1666.85V1646.2ZM227.977 1666.85C227.977 1668.55 226.527 1670 224.827 1670H215.177C213.427 1670 211.977 1668.55 211.977 1666.85V1646.2C211.977 1644.45 213.427 1643 215.177 1643H224.827C226.527 1643 227.977 1644.45 227.977 1646.2V1666.85ZM260.98 1646.15C260.98 1642.2 257.78 1639 253.83 1639H236.98V1674H253.83C257.78 1674 260.98 1670.8 260.98 1666.85V1646.15ZM256.98 1666.85C256.98 1668.55 255.58 1670 253.83 1670H240.98V1643H253.83C255.58 1643 256.98 1644.45 256.98 1646.2V1666.85ZM289.984 1639H285.984V1666.85C285.984 1668.55 284.534 1670 282.834 1670H273.184C271.434 1670 269.984 1668.55 269.984 1666.85V1639H265.984V1666.85C265.984 1670.8 269.184 1674 273.184 1674H282.834C286.784 1674 289.984 1670.8 289.984 1666.85V1639ZM318.988 1670H298.988V1639H294.988V1674H318.988V1670ZM333.192 1639C331.892 1639 331.592 1639.5 331.092 1640.55L324.242 1655C323.992 1655.6 323.992 1656.5 323.992 1657.95V1674H327.992V1666H343.992V1674H347.992V1657.95C347.992 1656.6 348.042 1655.6 347.742 1655L340.892 1640.55C340.392 1639.5 340.042 1639 338.792 1639H333.192ZM343.992 1662H327.992V1656.5L334.292 1643H337.842L343.992 1656.5V1662ZM376.996 1647.45C376.996 1642.8 373.246 1639 368.546 1639H352.996V1674H356.996V1658.5H363.846L372.996 1669.25V1674H376.996V1669.5C376.996 1668.5 376.996 1667.7 376.046 1666.65L368.996 1658.5C373.446 1658.3 376.996 1654.6 376.996 1650.05V1647.45ZM372.996 1650.05C372.996 1652.5 370.996 1654.5 368.546 1654.5H356.996V1643H368.546C370.996 1643 372.996 1645 372.996 1647.45V1650.05ZM435.054 1665.5C435.054 1654.4 415.004 1655.2 415.004 1647.45C415.004 1645 417.054 1643 419.454 1643H426.554C429.004 1643 431.054 1645 431.054 1647.4H435.054C435.054 1642.75 431.254 1639 426.554 1639H419.454C414.804 1639 411.004 1642.8 411.004 1647.45C411.004 1658.6 431.054 1657.75 431.054 1665.5C431.054 1668 429.104 1670 426.604 1670H419.504C417.054 1670 415.004 1668 415.004 1665.55H411.004C411.004 1670.2 414.804 1674 419.504 1674H426.554C431.254 1674 435.054 1670.2 435.054 1665.5ZM444.008 1643.7V1639H440.008V1642.95C440.008 1644.55 439.958 1645.5 441.358 1647.15L450.008 1657.4V1674H454.008V1657.4L462.608 1647.15C464.008 1645.5 463.958 1644.55 463.958 1642.95V1639H460.008V1643.7L452.008 1653.25L444.008 1643.7ZM493.062 1665.5C493.062 1654.4 473.012 1655.2 473.012 1647.45C473.012 1645 475.062 1643 477.462 1643H484.562C487.012 1643 489.062 1645 489.062 1647.4H493.062C493.062 1642.75 489.262 1639 484.562 1639H477.462C472.812 1639 469.012 1642.8 469.012 1647.45C469.012 1658.6 489.062 1657.75 489.062 1665.5C489.062 1668 487.112 1670 484.612 1670H477.512C475.062 1670 473.012 1668 473.012 1665.55H469.012C469.012 1670.2 472.812 1674 477.512 1674H484.562C489.262 1674 493.062 1670.2 493.062 1665.5ZM522.016 1639H498.016V1643H508.016V1674H512.016V1643H522.016V1639ZM551.02 1654.5H531.02V1643H551.02V1639H527.02V1674H551.02V1670H531.02V1658.5H551.02V1654.5ZM580.023 1639H576.023L567.973 1650.35L560.073 1639H556.023V1674H560.023V1646.15L565.623 1654.25C565.923 1654.75 566.023 1655.55 566.023 1656.2V1658.5H570.023V1656.2C570.023 1655.55 570.123 1654.6 570.323 1654.25L576.023 1646.1V1674H580.023V1639Z" fill="#1C1A1A"/>
<line x1="1977" y1="84" x2="3100" y2="84.0001" stroke="#1C1A1A" stroke-width="2"/>
<line x1="100" y1="84" x2="1223" y2="84.0001" stroke="#1C1A1A" stroke-width="2"/>
<line x1="100" y1="3119" x2="3100" y2="3119" stroke="#1C1A1A" stroke-width="2"/>
<g filter="url(#filter4_d_403_3507)">
<path fill-rule="evenodd" clip-rule="evenodd" d="M964.693 2105.99L783.205 2001.18C775.495 1996.73 776.462 1988.95 785.365 1983.81L961.226 1882.25C970.129 1877.11 983.597 1876.55 991.307 1881.01L1172.79 1985.82C1180.5 1990.27 1179.54 1998.05 1170.64 2003.19L994.774 2104.75C985.871 2109.89 972.403 2110.45 964.693 2105.99" fill="#1C1A1A" fill-opacity="0.01"/>
</g>
<path fill-rule="evenodd" clip-rule="evenodd" d="M964.693 2023.99L783.205 1919.18C775.495 1914.73 776.462 1906.95 785.365 1901.81L961.226 1800.25C970.129 1795.11 983.597 1794.55 991.307 1799.01L1172.79 1903.82C1180.5 1908.27 1179.54 1916.05 1170.64 1921.19L994.774 2022.75C985.871 2027.89 972.403 2028.45 964.693 2023.99" fill="#FFF8F1"/>
<path opacity="0.6" fill-rule="evenodd" clip-rule="evenodd" d="M964.693 2023.99L783.205 1919.18C775.495 1914.73 776.462 1906.95 785.365 1901.81L961.226 1800.25C970.129 1795.11 983.597 1794.55 991.307 1799.01L1172.79 1903.82C1180.5 1908.27 1179.54 1916.05 1170.64 1921.19L994.774 2022.75C985.871 2027.89 972.403 2028.45 964.693 2023.99" fill="#04FDD2" fill-opacity="0.7"/>
<mask id="path-46-inside-5_403_3507" fill="white">
<path fill-rule="evenodd" clip-rule="evenodd" d="M964.693 1971.99L783.205 1867.18C775.495 1862.73 776.462 1854.95 785.365 1849.81L961.226 1748.25C970.129 1743.11 983.597 1742.55 991.307 1747.01L1172.79 1851.82C1180.5 1856.27 1179.54 1864.05 1170.64 1869.19L994.774 1970.75C985.871 1975.89 972.403 1976.45 964.693 1971.99"/>
</mask>
<path d="M783.205 1867.18L782.205 1868.92L782.205 1868.92L783.205 1867.18ZM785.365 1849.81L784.365 1848.08L784.365 1848.08L785.365 1849.81ZM961.226 1748.25L960.226 1746.52L960.226 1746.52L961.226 1748.25ZM991.307 1747.01L992.307 1745.27L992.307 1745.27L991.307 1747.01ZM1172.79 1851.82L1173.8 1850.08L1173.8 1850.08L1172.79 1851.82ZM1170.64 1869.19L1171.64 1870.92L1171.64 1870.92L1170.64 1869.19ZM994.774 1970.75L993.774 1969.01L993.773 1969.01L994.774 1970.75ZM965.693 1970.26L784.205 1865.45L782.205 1868.92L963.693 1973.73L965.693 1970.26ZM784.205 1865.45C780.826 1863.5 779.776 1861.13 780.04 1859C780.323 1856.73 782.2 1853.95 786.365 1851.54L784.365 1848.08C779.627 1850.82 776.569 1854.5 776.07 1858.51C775.552 1862.68 777.874 1866.42 782.205 1868.92L784.205 1865.45ZM786.365 1851.54L962.227 1749.98L960.226 1746.52L784.365 1848.08L786.365 1851.54ZM962.226 1749.98C966.351 1747.6 971.616 1746.24 976.797 1746.03C981.996 1745.81 986.88 1746.76 990.307 1748.74L992.307 1745.27C988.023 1742.8 982.318 1741.8 976.631 1742.03C970.924 1742.27 965.005 1743.76 960.226 1746.52L962.226 1749.98ZM990.307 1748.74L1171.79 1853.55L1173.8 1850.08L992.307 1745.27L990.307 1748.74ZM1171.79 1853.55C1175.17 1855.5 1176.22 1857.87 1175.96 1860C1175.68 1862.27 1173.8 1865.05 1169.64 1867.46L1171.64 1870.92C1176.37 1868.18 1179.43 1864.5 1179.93 1860.49C1180.45 1856.32 1178.13 1852.58 1173.8 1850.08L1171.79 1853.55ZM1169.64 1867.46L993.774 1969.01L995.774 1972.48L1171.64 1870.92L1169.64 1867.46ZM993.773 1969.01C989.649 1971.4 984.384 1972.76 979.203 1972.97C974.004 1973.19 969.12 1972.24 965.693 1970.26L963.693 1973.73C967.977 1976.2 973.682 1977.2 979.369 1976.97C985.076 1976.73 990.995 1975.24 995.774 1972.48L993.773 1969.01Z" fill="#1C1A1A" mask="url(#path-46-inside-5_403_3507)"/>
<path fill-rule="evenodd" clip-rule="evenodd" d="M964.693 1874.99L783.205 1770.18C775.495 1765.73 776.462 1757.95 785.365 1752.81L961.226 1651.25C970.129 1646.11 983.597 1645.55 991.307 1650.01L1172.79 1754.82C1180.5 1759.27 1179.54 1767.05 1170.64 1772.19L994.774 1873.75C985.871 1878.89 972.403 1879.45 964.693 1874.99" fill="#FFF8F1"/>
<path opacity="0.6" fill-rule="evenodd" clip-rule="evenodd" d="M964.693 1874.99L783.205 1770.18C775.495 1765.73 776.462 1757.95 785.365 1752.81L961.226 1651.25C970.129 1646.11 983.597 1645.55 991.307 1650.01L1172.79 1754.82C1180.5 1759.27 1179.54 1767.05 1170.64 1772.19L994.774 1873.75C985.871 1878.89 972.403 1879.45 964.693 1874.99" fill="#CAFF01" fill-opacity="0.7"/>
<mask id="path-50-inside-6_403_3507" fill="white">
<path fill-rule="evenodd" clip-rule="evenodd" d="M964.693 1822.99L783.205 1718.18C775.495 1713.73 776.462 1705.95 785.365 1700.81L961.226 1599.25C970.129 1594.11 983.597 1593.55 991.307 1598.01L1172.79 1702.82C1180.5 1707.27 1179.54 1715.05 1170.64 1720.19L994.774 1821.75C985.871 1826.89 972.403 1827.45 964.693 1822.99"/>
</mask>
<path d="M783.205 1718.18L782.205 1719.92L782.205 1719.92L783.205 1718.18ZM785.365 1700.81L784.365 1699.08L784.365 1699.08L785.365 1700.81ZM961.226 1599.25L960.226 1597.52L960.226 1597.52L961.226 1599.25ZM991.307 1598.01L992.307 1596.27L992.307 1596.27L991.307 1598.01ZM1172.79 1702.82L1173.8 1701.08L1173.8 1701.08L1172.79 1702.82ZM1170.64 1720.19L1171.64 1721.92L1171.64 1721.92L1170.64 1720.19ZM994.774 1821.75L993.774 1820.01L993.773 1820.01L994.774 1821.75ZM965.693 1821.26L784.205 1716.45L782.205 1719.92L963.693 1824.73L965.693 1821.26ZM784.205 1716.45C780.826 1714.5 779.776 1712.13 780.04 1710C780.323 1707.73 782.2 1704.95 786.365 1702.54L784.365 1699.08C779.627 1701.82 776.569 1705.5 776.07 1709.51C775.552 1713.68 777.874 1717.42 782.205 1719.92L784.205 1716.45ZM786.365 1702.54L962.227 1600.98L960.226 1597.52L784.365 1699.08L786.365 1702.54ZM962.226 1600.98C966.351 1598.6 971.616 1597.24 976.797 1597.03C981.996 1596.81 986.88 1597.76 990.307 1599.74L992.307 1596.27C988.023 1593.8 982.318 1592.8 976.631 1593.03C970.924 1593.27 965.005 1594.76 960.226 1597.52L962.226 1600.98ZM990.307 1599.74L1171.79 1704.55L1173.8 1701.08L992.307 1596.27L990.307 1599.74ZM1171.79 1704.55C1175.17 1706.5 1176.22 1708.87 1175.96 1711C1175.68 1713.27 1173.8 1716.05 1169.64 1718.46L1171.64 1721.92C1176.37 1719.18 1179.43 1715.5 1179.93 1711.49C1180.45 1707.32 1178.13 1703.58 1173.8 1701.08L1171.79 1704.55ZM1169.64 1718.46L993.774 1820.01L995.774 1823.48L1171.64 1721.92L1169.64 1718.46ZM993.773 1820.01C989.649 1822.4 984.384 1823.76 979.203 1823.97C974.004 1824.19 969.12 1823.24 965.693 1821.26L963.693 1824.73C967.977 1827.2 973.682 1828.2 979.369 1827.97C985.076 1827.73 990.995 1826.24 995.774 1823.48L993.773 1820.01Z" fill="#1C1A1A" mask="url(#path-50-inside-6_403_3507)"/>
<path fill-rule="evenodd" clip-rule="evenodd" d="M964.693 1707.99L783.205 1603.18C775.495 1598.73 776.462 1590.95 785.365 1585.81L961.226 1484.25C970.129 1479.11 983.597 1478.55 991.307 1483.01L1172.79 1587.82C1180.5 1592.27 1179.54 1600.05 1170.64 1605.19L994.774 1706.75C985.871 1711.89 972.403 1712.45 964.693 1707.99" fill="#FFF8F1"/>
<path opacity="0.6" fill-rule="evenodd" clip-rule="evenodd" d="M964.693 1707.99L783.205 1603.18C775.495 1598.73 776.462 1590.95 785.365 1585.81L961.226 1484.25C970.129 1479.11 983.597 1478.55 991.307 1483.01L1172.79 1587.82C1180.5 1592.27 1179.54 1600.05 1170.64 1605.19L994.774 1706.75C985.871 1711.89 972.403 1712.45 964.693 1707.99" fill="#0085FF" fill-opacity="0.7"/>
<mask id="path-54-inside-7_403_3507" fill="white">
<path fill-rule="evenodd" clip-rule="evenodd" d="M964.693 1655.99L783.205 1551.18C775.495 1546.73 776.462 1538.95 785.365 1533.81L961.226 1432.25C970.129 1427.11 983.597 1426.55 991.307 1431.01L1172.79 1535.82C1180.5 1540.27 1179.54 1548.05 1170.64 1553.19L994.774 1654.75C985.871 1659.89 972.403 1660.45 964.693 1655.99"/>
</mask>
<path d="M783.205 1551.18L782.205 1552.92L782.205 1552.92L783.205 1551.18ZM785.365 1533.81L784.365 1532.08L784.365 1532.08L785.365 1533.81ZM961.226 1432.25L960.226 1430.52L960.226 1430.52L961.226 1432.25ZM991.307 1431.01L992.307 1429.27L992.307 1429.27L991.307 1431.01ZM1172.79 1535.82L1173.8 1534.08L1173.8 1534.08L1172.79 1535.82ZM1170.64 1553.19L1171.64 1554.92L1171.64 1554.92L1170.64 1553.19ZM994.774 1654.75L993.774 1653.01L993.773 1653.01L994.774 1654.75ZM965.693 1654.26L784.205 1549.45L782.205 1552.92L963.693 1657.73L965.693 1654.26ZM784.205 1549.45C780.826 1547.5 779.776 1545.13 780.04 1543C780.323 1540.73 782.2 1537.95 786.365 1535.54L784.365 1532.08C779.627 1534.82 776.569 1538.5 776.07 1542.51C775.552 1546.68 777.874 1550.42 782.205 1552.92L784.205 1549.45ZM786.365 1535.54L962.227 1433.98L960.226 1430.52L784.365 1532.08L786.365 1535.54ZM962.226 1433.98C966.351 1431.6 971.616 1430.24 976.797 1430.03C981.996 1429.81 986.88 1430.76 990.307 1432.74L992.307 1429.27C988.023 1426.8 982.318 1425.8 976.631 1426.03C970.924 1426.27 965.005 1427.76 960.226 1430.52L962.226 1433.98ZM990.307 1432.74L1171.79 1537.55L1173.8 1534.08L992.307 1429.27L990.307 1432.74ZM1171.79 1537.55C1175.17 1539.5 1176.22 1541.87 1175.96 1544C1175.68 1546.27 1173.8 1549.05 1169.64 1551.46L1171.64 1554.92C1176.37 1552.18 1179.43 1548.5 1179.93 1544.49C1180.45 1540.32 1178.13 1536.58 1173.8 1534.08L1171.79 1537.55ZM1169.64 1551.46L993.774 1653.01L995.774 1656.48L1171.64 1554.92L1169.64 1551.46ZM993.773 1653.01C989.649 1655.4 984.384 1656.76 979.203 1656.97C974.004 1657.19 969.12 1656.24 965.693 1654.26L963.693 1657.73C967.977 1660.2 973.682 1661.2 979.369 1660.97C985.076 1660.73 990.995 1659.24 995.774 1656.48L993.773 1653.01Z" fill="#1C1A1A" mask="url(#path-54-inside-7_403_3507)"/>
<path fill-rule="evenodd" clip-rule="evenodd" d="M964.693 1540.99L783.205 1436.18C775.495 1431.73 776.462 1423.95 785.365 1418.81L961.226 1317.25C970.129 1312.11 983.597 1311.55 991.307 1316.01L1172.79 1420.82C1180.5 1425.27 1179.54 1433.05 1170.64 1438.19L994.774 1539.75C985.871 1544.89 972.403 1545.45 964.693 1540.99" fill="#FFF8F1"/>
<path opacity="0.6" fill-rule="evenodd" clip-rule="evenodd" d="M964.693 1540.99L783.205 1436.18C775.495 1431.73 776.462 1423.95 785.365 1418.81L961.226 1317.25C970.129 1312.11 983.597 1311.55 991.307 1316.01L1172.79 1420.82C1180.5 1425.27 1179.54 1433.05 1170.64 1438.19L994.774 1539.75C985.871 1544.89 972.403 1545.45 964.693 1540.99" fill="#FE763C" fill-opacity="0.7"/>
<mask id="path-58-inside-8_403_3507" fill="white">
<path fill-rule="evenodd" clip-rule="evenodd" d="M964.693 1488.99L783.205 1384.18C775.495 1379.73 776.462 1371.95 785.365 1366.81L961.226 1265.25C970.129 1260.11 983.597 1259.55 991.307 1264.01L1172.79 1368.82C1180.5 1373.27 1179.54 1381.05 1170.64 1386.19L994.774 1487.75C985.871 1492.89 972.403 1493.45 964.693 1488.99"/>
</mask>
<path d="M783.205 1384.18L782.205 1385.92L782.205 1385.92L783.205 1384.18ZM785.365 1366.81L784.365 1365.08L784.365 1365.08L785.365 1366.81ZM961.226 1265.25L960.226 1263.52L960.226 1263.52L961.226 1265.25ZM991.307 1264.01L992.307 1262.27L992.307 1262.27L991.307 1264.01ZM1172.79 1368.82L1173.8 1367.08L1173.8 1367.08L1172.79 1368.82ZM1170.64 1386.19L1171.64 1387.92L1171.64 1387.92L1170.64 1386.19ZM994.774 1487.75L993.774 1486.01L993.773 1486.01L994.774 1487.75ZM965.693 1487.26L784.205 1382.45L782.205 1385.92L963.693 1490.73L965.693 1487.26ZM784.205 1382.45C780.826 1380.5 779.776 1378.13 780.04 1376C780.323 1373.73 782.2 1370.95 786.365 1368.54L784.365 1365.08C779.627 1367.82 776.569 1371.5 776.07 1375.51C775.552 1379.68 777.874 1383.42 782.205 1385.92L784.205 1382.45ZM786.365 1368.54L962.227 1266.98L960.226 1263.52L784.365 1365.08L786.365 1368.54ZM962.226 1266.98C966.351 1264.6 971.616 1263.24 976.797 1263.03C981.996 1262.81 986.88 1263.76 990.307 1265.74L992.307 1262.27C988.023 1259.8 982.318 1258.8 976.631 1259.03C970.924 1259.27 965.005 1260.76 960.226 1263.52L962.226 1266.98ZM990.307 1265.74L1171.79 1370.55L1173.8 1367.08L992.307 1262.27L990.307 1265.74ZM1171.79 1370.55C1175.17 1372.5 1176.22 1374.87 1175.96 1377C1175.68 1379.27 1173.8 1382.05 1169.64 1384.46L1171.64 1387.92C1176.37 1385.18 1179.43 1381.5 1179.93 1377.49C1180.45 1373.32 1178.13 1369.58 1173.8 1367.08L1171.79 1370.55ZM1169.64 1384.46L993.774 1486.01L995.774 1489.48L1171.64 1387.92L1169.64 1384.46ZM993.773 1486.01C989.649 1488.4 984.384 1489.76 979.203 1489.97C974.004 1490.19 969.12 1489.24 965.693 1487.26L963.693 1490.73C967.977 1493.2 973.682 1494.2 979.369 1493.97C985.076 1493.73 990.995 1492.24 995.774 1489.48L993.773 1486.01Z" fill="#1C1A1A" mask="url(#path-58-inside-8_403_3507)"/>
<path d="M708 1393H672C669.791 1393 668 1394.79 668 1397V1661.5C668 1663.71 666.209 1665.5 664 1665.5L628 1665.5" stroke="#1C1A1A" stroke-width="2" stroke-linecap="round" stroke-linejoin="round"/>
<path d="M708 1938H672C669.791 1938 668 1936.21 668 1934V1669.5C668 1667.29 666.209 1665.5 664 1665.5L628 1665.5" stroke="#1C1A1A" stroke-width="2" stroke-linecap="round" stroke-linejoin="round"/>
<path d="M945.694 2155C944.394 2155 944.094 2155.5 943.594 2156.55L936.744 2171C936.494 2171.6 936.494 2172.5 936.494 2173.95V2190H940.494V2182H956.494V2190H960.494V2173.95C960.494 2172.6 960.544 2171.6 960.244 2171L953.394 2156.55C952.894 2155.5 952.544 2155 951.294 2155H945.694ZM956.494 2178H940.494V2172.5L946.794 2159H950.344L956.494 2172.5V2178ZM989.498 2163.45C989.498 2158.8 985.748 2155 981.048 2155H965.498V2190H969.498V2174.5H981.048C985.748 2174.5 989.498 2170.75 989.498 2166.05V2163.45ZM985.498 2166.05C985.498 2168.5 983.498 2170.5 981.048 2170.5H969.498V2159H981.048C983.498 2159 985.498 2161 985.498 2163.45V2166.05ZM1018.5 2163.45C1018.5 2158.8 1014.75 2155 1010.05 2155H994.502V2190H998.502V2174.5H1010.05C1014.75 2174.5 1018.5 2170.75 1018.5 2166.05V2163.45ZM1014.5 2166.05C1014.5 2168.5 1012.5 2170.5 1010.05 2170.5H998.502V2159H1010.05C1012.5 2159 1014.5 2161 1014.5 2163.45V2166.05Z" fill="#1C1A1A"/>
<path d="M2540.5 1903H2536.5L2528.45 1914.35L2520.55 1903H2516.5V1938H2520.5V1910.15L2526.1 1918.25C2526.4 1918.75 2526.5 1919.55 2526.5 1920.2V1922.5H2530.5V1920.2C2530.5 1919.55 2530.6 1918.6 2530.8 1918.25L2536.5 1910.1V1938H2540.5V1903ZM2569.5 1910.2C2569.5 1906.25 2566.3 1903 2562.35 1903H2552.7C2548.7 1903 2545.5 1906.25 2545.5 1910.2V1930.85C2545.5 1934.8 2548.7 1938 2552.7 1938H2562.35C2566.3 1938 2569.5 1934.8 2569.5 1930.85V1910.2ZM2565.5 1930.85C2565.5 1932.55 2564.05 1934 2562.35 1934H2552.7C2550.95 1934 2549.5 1932.55 2549.5 1930.85V1910.2C2549.5 1908.45 2550.95 1907 2552.7 1907H2562.35C2564.05 1907 2565.5 1908.45 2565.5 1910.2V1930.85ZM2598.51 1910.15C2598.51 1906.2 2595.31 1903 2591.36 1903H2574.51V1938H2591.36C2595.31 1938 2598.51 1934.8 2598.51 1930.85V1910.15ZM2594.51 1930.85C2594.51 1932.55 2593.11 1934 2591.36 1934H2578.51V1907H2591.36C2593.11 1907 2594.51 1908.45 2594.51 1910.2V1930.85ZM2627.51 1918.5H2607.51V1907H2627.51V1903H2603.51V1938H2627.51V1934H2607.51V1922.5H2627.51V1918.5ZM2656.52 1934H2636.52V1903H2632.52V1938H2656.52V1934ZM2540.5 1953H2536.5L2528.45 1964.35L2520.55 1953H2516.5V1988H2520.5V1960.15L2526.1 1968.25C2526.4 1968.75 2526.5 1969.55 2526.5 1970.2V1972.5H2530.5V1970.2C2530.5 1969.55 2530.6 1968.6 2530.8 1968.25L2536.5 1960.1V1988H2540.5V1953ZM2554.7 1953C2553.4 1953 2553.1 1953.5 2552.6 1954.55L2545.75 1969C2545.5 1969.6 2545.5 1970.5 2545.5 1971.95V1988H2549.5V1980H2565.5V1988H2569.5V1971.95C2569.5 1970.6 2569.55 1969.6 2569.25 1969L2562.4 1954.55C2561.9 1953.5 2561.55 1953 2560.3 1953H2554.7ZM2565.5 1976H2549.5V1970.5L2555.8 1957H2559.35L2565.5 1970.5V1976ZM2598.51 1953H2594.51V1980L2578.51 1953H2574.51V1988H2578.51V1961L2594.51 1988H2598.51V1953ZM2612.71 1953C2611.41 1953 2611.11 1953.5 2610.61 1954.55L2603.76 1969C2603.51 1969.6 2603.51 1970.5 2603.51 1971.95V1988H2607.51V1980H2623.51V1988H2627.51V1971.95C2627.51 1970.6 2627.56 1969.6 2627.26 1969L2620.41 1954.55C2619.91 1953.5 2619.56 1953 2618.31 1953H2612.71ZM2623.51 1976H2607.51V1970.5L2613.81 1957H2617.36L2623.51 1970.5V1976ZM2656.52 1968.5H2644.52V1972.5H2652.52V1980.85C2652.52 1982.6 2651.07 1984 2649.37 1984H2639.67C2637.92 1984 2636.52 1982.6 2636.52 1980.85V1960.2C2636.52 1958.45 2637.92 1957 2639.67 1957H2649.32C2651.07 1957 2652.47 1958.45 2652.47 1960.2H2656.47C2656.47 1956.25 2653.32 1953 2649.32 1953H2639.67C2635.67 1953 2632.52 1956.25 2632.52 1960.2V1980.85C2632.52 1984.8 2635.67 1988 2639.67 1988H2649.37C2653.32 1988 2656.52 1984.8 2656.52 1980.85V1968.5ZM2685.52 1968.5H2665.52V1957H2685.52V1953H2661.52V1988H2685.52V1984H2665.52V1972.5H2685.52V1968.5ZM2714.52 1961.45C2714.52 1956.8 2710.77 1953 2706.07 1953H2690.52V1988H2694.52V1972.5H2701.37L2710.52 1983.25V1988H2714.52V1983.5C2714.52 1982.5 2714.52 1981.7 2713.57 1980.65L2706.52 1972.5C2710.97 1972.3 2714.52 1968.6 2714.52 1964.05V1961.45ZM2710.52 1964.05C2710.52 1966.5 2708.52 1968.5 2706.07 1968.5H2694.52V1957H2706.07C2708.52 1957 2710.52 1959 2710.52 1961.45V1964.05Z" fill="#1C1A1A"/>
<path d="M2523.5 2186H2519.5L2511.45 2197.35L2503.55 2186H2499.5V2221H2503.5V2193.15L2509.1 2201.25C2509.4 2201.75 2509.5 2202.55 2509.5 2203.2V2205.5H2513.5V2203.2C2513.5 2202.55 2513.6 2201.6 2513.8 2201.25L2519.5 2193.1V2221H2523.5V2186ZM2552.5 2193.2C2552.5 2189.25 2549.3 2186 2545.35 2186H2535.7C2531.7 2186 2528.5 2189.25 2528.5 2193.2V2213.85C2528.5 2217.8 2531.7 2221 2535.7 2221H2545.35C2549.3 2221 2552.5 2217.8 2552.5 2213.85V2193.2ZM2548.5 2213.85C2548.5 2215.55 2547.05 2217 2545.35 2217H2535.7C2533.95 2217 2532.5 2215.55 2532.5 2213.85V2193.2C2532.5 2191.45 2533.95 2190 2535.7 2190H2545.35C2547.05 2190 2548.5 2191.45 2548.5 2193.2V2213.85ZM2581.51 2193.15C2581.51 2189.2 2578.31 2186 2574.36 2186H2557.51V2221H2574.36C2578.31 2221 2581.51 2217.8 2581.51 2213.85V2193.15ZM2577.51 2213.85C2577.51 2215.55 2576.11 2217 2574.36 2217H2561.51V2190H2574.36C2576.11 2190 2577.51 2191.45 2577.51 2193.2V2213.85ZM2610.51 2201.5H2590.51V2190H2610.51V2186H2586.51V2221H2610.51V2217H2590.51V2205.5H2610.51V2201.5ZM2639.52 2217H2619.52V2186H2615.52V2221H2639.52V2217ZM2523.5 2267H2513.5V2240H2523.5V2236H2499.5V2240H2509.5V2267H2499.5V2271H2523.5V2267ZM2552.5 2236H2548.5V2263L2532.5 2236H2528.5V2271H2532.5V2244L2548.5 2271H2552.5V2236ZM2581.51 2251.5H2561.51V2240H2581.51V2236H2557.51V2271H2561.51V2255.5H2581.51V2251.5ZM2610.51 2244.45C2610.51 2239.8 2606.76 2236 2602.06 2236H2586.51V2271H2590.51V2255.5H2597.36L2606.51 2266.25V2271H2610.51V2266.5C2610.51 2265.5 2610.51 2264.7 2609.56 2263.65L2602.51 2255.5C2606.96 2255.3 2610.51 2251.6 2610.51 2247.05V2244.45ZM2606.51 2247.05C2606.51 2249.5 2604.51 2251.5 2602.06 2251.5H2590.51V2240H2602.06C2604.51 2240 2606.51 2242 2606.51 2244.45V2247.05ZM2624.72 2236C2623.42 2236 2623.12 2236.5 2622.62 2237.55L2615.77 2252C2615.52 2252.6 2615.52 2253.5 2615.52 2254.95V2271H2619.52V2263H2635.52V2271H2639.52V2254.95C2639.52 2253.6 2639.57 2252.6 2639.27 2252L2632.42 2237.55C2631.92 2236.5 2631.57 2236 2630.32 2236H2624.72ZM2635.52 2259H2619.52V2253.5L2625.82 2240H2629.37L2635.52 2253.5V2259ZM2668.57 2262.5C2668.57 2251.4 2648.52 2252.2 2648.52 2244.45C2648.52 2242 2650.57 2240 2652.97 2240H2660.07C2662.52 2240 2664.57 2242 2664.57 2244.4H2668.57C2668.57 2239.75 2664.77 2236 2660.07 2236H2652.97C2648.32 2236 2644.52 2239.8 2644.52 2244.45C2644.52 2255.6 2664.57 2254.75 2664.57 2262.5C2664.57 2265 2662.62 2267 2660.12 2267H2653.02C2650.57 2267 2648.52 2265 2648.52 2262.55H2644.52C2644.52 2267.2 2648.32 2271 2653.02 2271H2660.07C2664.77 2271 2668.57 2267.2 2668.57 2262.5ZM2697.52 2236H2673.52V2240H2683.52V2271H2687.52V2240H2697.52V2236ZM2726.53 2244.45C2726.53 2239.8 2722.78 2236 2718.08 2236H2702.53V2271H2706.53V2255.5H2713.38L2722.53 2266.25V2271H2726.53V2266.5C2726.53 2265.5 2726.53 2264.7 2725.58 2263.65L2718.53 2255.5C2722.98 2255.3 2726.53 2251.6 2726.53 2247.05V2244.45ZM2722.53 2247.05C2722.53 2249.5 2720.53 2251.5 2718.08 2251.5H2706.53V2240H2718.08C2720.53 2240 2722.53 2242 2722.53 2244.45V2247.05ZM2755.53 2236H2751.53V2263.85C2751.53 2265.55 2750.08 2267 2748.38 2267H2738.73C2736.98 2267 2735.53 2265.55 2735.53 2263.85V2236H2731.53V2263.85C2731.53 2267.8 2734.73 2271 2738.73 2271H2748.38C2752.33 2271 2755.53 2267.8 2755.53 2263.85V2236ZM2780.54 2263.85C2780.54 2265.55 2779.09 2267 2777.39 2267H2767.69C2765.99 2267 2764.54 2265.55 2764.54 2263.85V2243.25C2764.54 2241.45 2765.99 2240 2767.69 2240H2777.39C2779.09 2240 2780.54 2241.45 2780.54 2243.25H2784.54C2784.54 2239.25 2781.34 2236 2777.39 2236H2767.69C2763.74 2236 2760.54 2239.25 2760.54 2243.25V2263.85C2760.54 2267.8 2763.74 2271 2767.69 2271H2777.39C2781.34 2271 2784.54 2267.8 2784.54 2263.85H2780.54ZM2813.54 2236H2789.54V2240H2799.54V2271H2803.54V2240H2813.54V2236ZM2842.54 2236H2838.54V2263.85C2838.54 2265.55 2837.09 2267 2835.39 2267H2825.74C2823.99 2267 2822.54 2265.55 2822.54 2263.85V2236H2818.54V2263.85C2818.54 2267.8 2821.74 2271 2825.74 2271H2835.39C2839.34 2271 2842.54 2267.8 2842.54 2263.85V2236ZM2871.55 2244.45C2871.55 2239.8 2867.8 2236 2863.1 2236H2847.55V2271H2851.55V2255.5H2858.4L2867.55 2266.25V2271H2871.55V2266.5C2871.55 2265.5 2871.55 2264.7 2870.6 2263.65L2863.55 2255.5C2868 2255.3 2871.55 2251.6 2871.55 2247.05V2244.45ZM2867.55 2247.05C2867.55 2249.5 2865.55 2251.5 2863.1 2251.5H2851.55V2240H2863.1C2865.55 2240 2867.55 2242 2867.55 2244.45V2247.05ZM2900.55 2251.5H2880.55V2240H2900.55V2236H2876.55V2271H2900.55V2267H2880.55V2255.5H2900.55V2251.5Z" fill="#1C1A1A"/>
<g filter="url(#filter5_d_403_3507)">
<path fill-rule="evenodd" clip-rule="evenodd" d="M2214.69 2081.99L2033.21 1977.18C2025.5 1972.73 2026.46 1964.95 2035.36 1959.81L2211.23 1858.25C2220.13 1853.11 2233.6 1852.55 2241.31 1857.01L2422.79 1961.82C2430.5 1966.27 2429.54 1974.05 2420.64 1979.19L2244.77 2080.75C2235.87 2085.89 2222.4 2086.45 2214.69 2081.99" fill="#1C1A1A" fill-opacity="0.01"/>
</g>
<path fill-rule="evenodd" clip-rule="evenodd" d="M2214.69 2061.99L2033.21 1957.18C2025.5 1952.73 2026.46 1944.95 2035.36 1939.81L2211.23 1838.25C2220.13 1833.11 2233.6 1832.55 2241.31 1837.01L2422.79 1941.82C2430.5 1946.27 2429.54 1954.05 2420.64 1959.19L2244.77 2060.75C2235.87 2065.89 2222.4 2066.45 2214.69 2061.99" fill="#FFF8F1"/>
<path d="M2214.69 2061.99L2033.21 1957.18C2025.5 1952.73 2026.46 1944.95 2035.36 1939.81L2211.23 1838.25C2220.13 1833.11 2233.6 1832.55 2241.31 1837.01L2422.79 1941.82C2430.5 1946.27 2429.54 1954.05 2420.64 1959.19L2244.77 2060.75C2235.87 2065.89 2222.4 2066.45 2214.69 2061.99" stroke="#1C1A1A" stroke-width="2"/>
<g opacity="0.6">
<path fill-rule="evenodd" clip-rule="evenodd" d="M2214.69 2061.99L2033.21 1957.18C2025.5 1952.73 2026.46 1944.95 2035.36 1939.81L2211.23 1838.25C2220.13 1833.11 2233.6 1832.55 2241.31 1837.01L2422.79 1941.82C2430.5 1946.27 2429.54 1954.05 2420.64 1959.19L2244.77 2060.75C2235.87 2065.89 2222.4 2066.45 2214.69 2061.99" fill="#CAFF01" fill-opacity="0.6"/>
<path d="M2214.69 2061.99L2033.21 1957.18C2025.5 1952.73 2026.46 1944.95 2035.36 1939.81L2211.23 1838.25C2220.13 1833.11 2233.6 1832.55 2241.31 1837.01L2422.79 1941.82C2430.5 1946.27 2429.54 1954.05 2420.64 1959.19L2244.77 2060.75C2235.87 2065.89 2222.4 2066.45 2214.69 2061.99" stroke="#1C1A1A" stroke-width="2"/>
</g>
<g filter="url(#filter6_d_403_3507)">
<path fill-rule="evenodd" clip-rule="evenodd" d="M2214.69 2362.99L2033.21 2258.18C2025.5 2253.73 2026.46 2245.95 2035.36 2240.81L2211.23 2139.25C2220.13 2134.11 2233.6 2133.55 2241.31 2138.01L2422.79 2242.82C2430.5 2247.27 2429.54 2255.05 2420.64 2260.19L2244.77 2361.75C2235.87 2366.89 2222.4 2367.45 2214.69 2362.99" fill="#1C1A1A" fill-opacity="0.01"/>
</g>
<path fill-rule="evenodd" clip-rule="evenodd" d="M2214.69 2342.99L2033.21 2238.18C2025.5 2233.73 2026.46 2225.95 2035.36 2220.81L2211.23 2119.25C2220.13 2114.11 2233.6 2113.55 2241.31 2118.01L2422.79 2222.82C2430.5 2227.27 2429.54 2235.05 2420.64 2240.19L2244.77 2341.75C2235.87 2346.89 2222.4 2347.45 2214.69 2342.99" fill="#FFF8F1"/>
<path d="M2214.69 2342.99L2033.21 2238.18C2025.5 2233.73 2026.46 2225.95 2035.36 2220.81L2211.23 2119.25C2220.13 2114.11 2233.6 2113.55 2241.31 2118.01L2422.79 2222.82C2430.5 2227.27 2429.54 2235.05 2420.64 2240.19L2244.77 2341.75C2235.87 2346.89 2222.4 2347.45 2214.69 2342.99" stroke="#1C1A1A" stroke-width="2"/>
<g opacity="0.6">
<path fill-rule="evenodd" clip-rule="evenodd" d="M2214.69 2342.99L2033.21 2238.18C2025.5 2233.73 2026.46 2225.95 2035.36 2220.81L2211.23 2119.25C2220.13 2114.11 2233.6 2113.55 2241.31 2118.01L2422.79 2222.82C2430.5 2227.27 2429.54 2235.05 2420.64 2240.19L2244.77 2341.75C2235.87 2346.89 2222.4 2347.45 2214.69 2342.99" fill="#CAFF01" fill-opacity="0.3"/>
<path d="M2214.69 2342.99L2033.21 2238.18C2025.5 2233.73 2026.46 2225.95 2035.36 2220.81L2211.23 2119.25C2220.13 2114.11 2233.6 2113.55 2241.31 2118.01L2422.79 2222.82C2430.5 2227.27 2429.54 2235.05 2420.64 2240.19L2244.77 2341.75C2235.87 2346.89 2222.4 2347.45 2214.69 2342.99" stroke="#1C1A1A" stroke-width="2"/>
</g>
<g filter="url(#filter7_d_403_3507)">
<path fill-rule="evenodd" clip-rule="evenodd" d="M2214.69 1800.99L2033.21 1696.18C2025.5 1691.73 2026.46 1683.95 2035.36 1678.81L2211.23 1577.25C2220.13 1572.11 2233.6 1571.55 2241.31 1576.01L2422.79 1680.82C2430.5 1685.27 2429.54 1693.05 2420.64 1698.19L2244.77 1799.75C2235.87 1804.89 2222.4 1805.45 2214.69 1800.99" fill="#1C1A1A" fill-opacity="0.01"/>
</g>
<mask id="path-76-inside-9_403_3507" fill="white">
<path fill-rule="evenodd" clip-rule="evenodd" d="M2214.69 1780.99L2033.21 1676.18C2025.5 1671.73 2026.46 1663.95 2035.36 1658.81L2211.23 1557.25C2220.13 1552.11 2233.6 1551.55 2241.31 1556.01L2422.79 1660.82C2430.5 1665.27 2429.54 1673.05 2420.64 1678.19L2244.77 1779.75C2235.87 1784.89 2222.4 1785.45 2214.69 1780.99"/>
</mask>
<path fill-rule="evenodd" clip-rule="evenodd" d="M2214.69 1780.99L2033.21 1676.18C2025.5 1671.73 2026.46 1663.95 2035.36 1658.81L2211.23 1557.25C2220.13 1552.11 2233.6 1551.55 2241.31 1556.01L2422.79 1660.82C2430.5 1665.27 2429.54 1673.05 2420.64 1678.19L2244.77 1779.75C2235.87 1784.89 2222.4 1785.45 2214.69 1780.99" fill="#E9FF67"/>
<path d="M2033.21 1676.18L2032.2 1677.92L2032.2 1677.92L2033.21 1676.18ZM2035.36 1658.81L2034.36 1657.08L2034.36 1657.08L2035.36 1658.81ZM2211.23 1557.25L2210.23 1555.52L2210.23 1555.52L2211.23 1557.25ZM2241.31 1556.01L2242.31 1554.27L2242.31 1554.27L2241.31 1556.01ZM2422.79 1660.82L2423.8 1659.08L2423.8 1659.08L2422.79 1660.82ZM2420.64 1678.19L2421.64 1679.92L2421.64 1679.92L2420.64 1678.19ZM2244.77 1779.75L2243.77 1778.01L2243.77 1778.01L2244.77 1779.75ZM2215.69 1779.26L2034.21 1674.45L2032.2 1677.92L2213.69 1782.73L2215.69 1779.26ZM2034.21 1674.45C2030.83 1672.5 2029.78 1670.13 2030.04 1668C2030.32 1665.73 2032.2 1662.95 2036.36 1660.54L2034.36 1657.08C2029.63 1659.82 2026.57 1663.5 2026.07 1667.51C2025.55 1671.68 2027.87 1675.42 2032.2 1677.92L2034.21 1674.45ZM2036.36 1660.54L2212.23 1558.98L2210.23 1555.52L2034.36 1657.08L2036.36 1660.54ZM2212.23 1558.98C2216.35 1556.6 2221.62 1555.24 2226.8 1555.03C2232 1554.81 2236.88 1555.76 2240.31 1557.74L2242.31 1554.27C2238.02 1551.8 2232.32 1550.8 2226.63 1551.03C2220.92 1551.27 2215 1552.76 2210.23 1555.52L2212.23 1558.98ZM2240.31 1557.74L2421.79 1662.55L2423.8 1659.08L2242.31 1554.27L2240.31 1557.74ZM2421.79 1662.55C2425.17 1664.5 2426.22 1666.87 2425.96 1669C2425.68 1671.27 2423.8 1674.05 2419.64 1676.46L2421.64 1679.92C2426.37 1677.18 2429.43 1673.5 2429.93 1669.49C2430.45 1665.32 2428.13 1661.58 2423.8 1659.08L2421.79 1662.55ZM2419.64 1676.46L2243.77 1778.01L2245.77 1781.48L2421.64 1679.92L2419.64 1676.46ZM2243.77 1778.01C2239.65 1780.4 2234.38 1781.76 2229.2 1781.97C2224 1782.19 2219.12 1781.24 2215.69 1779.26L2213.69 1782.73C2217.98 1785.2 2223.68 1786.2 2229.37 1785.97C2235.08 1785.73 2241 1784.24 2245.77 1781.48L2243.77 1778.01Z" fill="#1C1A1A" mask="url(#path-76-inside-9_403_3507)"/>
<path d="M2540.5 1618H2536.5L2528.45 1629.35L2520.55 1618H2516.5V1653H2520.5V1625.15L2526.1 1633.25C2526.4 1633.75 2526.5 1634.55 2526.5 1635.2V1637.5H2530.5V1635.2C2530.5 1634.55 2530.6 1633.6 2530.8 1633.25L2536.5 1625.1V1653H2540.5V1618ZM2554.7 1618C2553.4 1618 2553.1 1618.5 2552.6 1619.55L2545.75 1634C2545.5 1634.6 2545.5 1635.5 2545.5 1636.95V1653H2549.5V1645H2565.5V1653H2569.5V1636.95C2569.5 1635.6 2569.55 1634.6 2569.25 1634L2562.4 1619.55C2561.9 1618.5 2561.55 1618 2560.3 1618H2554.7ZM2565.5 1641H2549.5V1635.5L2555.8 1622H2559.35L2565.5 1635.5V1641ZM2594.51 1645.85C2594.51 1647.55 2593.06 1649 2591.36 1649H2581.66C2579.96 1649 2578.51 1647.55 2578.51 1645.85V1625.25C2578.51 1623.45 2579.96 1622 2581.66 1622H2591.36C2593.06 1622 2594.51 1623.45 2594.51 1625.25H2598.51C2598.51 1621.25 2595.31 1618 2591.36 1618H2581.66C2577.71 1618 2574.51 1621.25 2574.51 1625.25V1645.85C2574.51 1649.8 2577.71 1653 2581.66 1653H2591.36C2595.31 1653 2598.51 1649.8 2598.51 1645.85H2594.51ZM2627.51 1618H2623.51V1633.5H2607.51V1618H2603.51V1653H2607.51V1637.5H2623.51V1653H2627.51V1618ZM2656.52 1649H2646.52V1622H2656.52V1618H2632.52V1622H2642.52V1649H2632.52V1653H2656.52V1649ZM2685.52 1618H2681.52V1645L2665.52 1618H2661.52V1653H2665.52V1626L2681.52 1653H2685.52V1618ZM2714.52 1633.5H2694.52V1622H2714.52V1618H2690.52V1653H2714.52V1649H2694.52V1637.5H2714.52V1633.5ZM2772.53 1649H2752.53V1618H2748.53V1653H2772.53V1649ZM2801.54 1633.5H2781.54V1622H2801.54V1618H2777.54V1653H2801.54V1649H2781.54V1637.5H2801.54V1633.5ZM2815.74 1618C2814.44 1618 2814.14 1618.5 2813.64 1619.55L2806.79 1634C2806.54 1634.6 2806.54 1635.5 2806.54 1636.95V1653H2810.54V1645H2826.54V1653H2830.54V1636.95C2830.54 1635.6 2830.59 1634.6 2830.29 1634L2823.44 1619.55C2822.94 1618.5 2822.59 1618 2821.34 1618H2815.74ZM2826.54 1641H2810.54V1635.5L2816.84 1622H2820.39L2826.54 1635.5V1641ZM2859.54 1626.45C2859.54 1621.8 2855.79 1618 2851.09 1618H2835.54V1653H2839.54V1637.5H2846.39L2855.54 1648.25V1653H2859.54V1648.5C2859.54 1647.5 2859.54 1646.7 2858.59 1645.65L2851.54 1637.5C2855.99 1637.3 2859.54 1633.6 2859.54 1629.05V1626.45ZM2855.54 1629.05C2855.54 1631.5 2853.54 1633.5 2851.09 1633.5H2839.54V1622H2851.09C2853.54 1622 2855.54 1624 2855.54 1626.45V1629.05ZM2888.55 1618H2884.55V1645L2868.55 1618H2864.55V1653H2868.55V1626L2884.55 1653H2888.55V1618ZM2917.55 1649H2907.55V1622H2917.55V1618H2893.55V1622H2903.55V1649H2893.55V1653H2917.55V1649ZM2946.55 1618H2942.55V1645L2926.55 1618H2922.55V1653H2926.55V1626L2942.55 1653H2946.55V1618ZM2975.56 1633.5H2963.56V1637.5H2971.56V1645.85C2971.56 1647.6 2970.11 1649 2968.41 1649H2958.71C2956.96 1649 2955.56 1647.6 2955.56 1645.85V1625.2C2955.56 1623.45 2956.96 1622 2958.71 1622H2968.36C2970.11 1622 2971.51 1623.45 2971.51 1625.2H2975.51C2975.51 1621.25 2972.36 1618 2968.36 1618H2958.71C2954.71 1618 2951.56 1621.25 2951.56 1625.2V1645.85C2951.56 1649.8 2954.71 1653 2958.71 1653H2968.41C2972.36 1653 2975.56 1649.8 2975.56 1645.85V1633.5ZM2523.65 1699C2521.95 1699 2520.5 1697.55 2520.5 1695.85H2516.5C2516.5 1699.8 2519.7 1703 2523.65 1703H2533.35C2537.3 1703 2540.5 1699.8 2540.5 1695.85V1668H2516.5V1672H2536.5V1695.85C2536.5 1697.55 2535.1 1699 2533.35 1699H2523.65ZM2569.5 1675.2C2569.5 1671.25 2566.3 1668 2562.35 1668H2552.7C2548.7 1668 2545.5 1671.25 2545.5 1675.2V1695.85C2545.5 1699.8 2548.7 1703 2552.7 1703H2562.35C2566.3 1703 2569.5 1699.8 2569.5 1695.85V1675.2ZM2565.5 1695.85C2565.5 1697.55 2564.05 1699 2562.35 1699H2552.7C2550.95 1699 2549.5 1697.55 2549.5 1695.85V1675.2C2549.5 1673.45 2550.95 1672 2552.7 1672H2562.35C2564.05 1672 2565.5 1673.45 2565.5 1675.2V1695.85ZM2598.51 1690.7C2598.51 1688.95 2597.76 1687 2596.31 1685.45C2597.76 1683.9 2598.51 1682.1 2598.51 1680.35V1675.05C2598.51 1671.1 2595.31 1668 2591.36 1668H2574.51V1703H2591.36C2595.31 1703 2598.51 1699.8 2598.51 1695.85V1690.7ZM2594.51 1680.4C2594.51 1682.2 2593.06 1683.5 2591.36 1683.5H2578.51V1672H2591.36C2593.06 1672 2594.51 1673.35 2594.51 1675.15V1680.4ZM2594.51 1695.85C2594.51 1697.55 2593.06 1699 2591.36 1699H2578.51V1687.5H2591.36C2593.06 1687.5 2594.51 1688.9 2594.51 1690.7V1695.85ZM2627.56 1694.5C2627.56 1683.4 2607.51 1684.2 2607.51 1676.45C2607.51 1674 2609.56 1672 2611.96 1672H2619.06C2621.51 1672 2623.56 1674 2623.56 1676.4H2627.56C2627.56 1671.75 2623.76 1668 2619.06 1668H2611.96C2607.31 1668 2603.51 1671.8 2603.51 1676.45C2603.51 1687.6 2623.56 1686.75 2623.56 1694.5C2623.56 1697 2621.61 1699 2619.11 1699H2612.01C2609.56 1699 2607.51 1697 2607.51 1694.55H2603.51C2603.51 1699.2 2607.31 1703 2612.01 1703H2619.06C2623.76 1703 2627.56 1699.2 2627.56 1694.5ZM2685.52 1676.45C2685.52 1671.8 2681.77 1668 2677.07 1668H2661.52V1703H2665.52V1687.5H2677.07C2681.77 1687.5 2685.52 1683.75 2685.52 1679.05V1676.45ZM2681.52 1679.05C2681.52 1681.5 2679.52 1683.5 2677.07 1683.5H2665.52V1672H2677.07C2679.52 1672 2681.52 1674 2681.52 1676.45V1679.05ZM2699.72 1668C2698.42 1668 2698.12 1668.5 2697.62 1669.55L2690.77 1684C2690.52 1684.6 2690.52 1685.5 2690.52 1686.95V1703H2694.52V1695H2710.52V1703H2714.52V1686.95C2714.52 1685.6 2714.57 1684.6 2714.27 1684L2707.42 1669.55C2706.92 1668.5 2706.57 1668 2705.32 1668H2699.72ZM2710.52 1691H2694.52V1685.5L2700.82 1672H2704.37L2710.52 1685.5V1691ZM2743.53 1683.5H2731.53V1687.5H2739.53V1695.85C2739.53 1697.6 2738.08 1699 2736.38 1699H2726.68C2724.93 1699 2723.53 1697.6 2723.53 1695.85V1675.2C2723.53 1673.45 2724.93 1672 2726.68 1672H2736.33C2738.08 1672 2739.48 1673.45 2739.48 1675.2H2743.48C2743.48 1671.25 2740.33 1668 2736.33 1668H2726.68C2722.68 1668 2719.53 1671.25 2719.53 1675.2V1695.85C2719.53 1699.8 2722.68 1703 2726.68 1703H2736.38C2740.33 1703 2743.53 1699.8 2743.53 1695.85V1683.5ZM2772.53 1683.5H2752.53V1672H2772.53V1668H2748.53V1703H2772.53V1699H2752.53V1687.5H2772.53V1683.5Z" fill="#1C1A1A"/>
<defs>
<filter id="filter0_d_403_3507" x="1367" y="1909" width="464" height="295" filterUnits="userSpaceOnUse" color-interpolation-filters="sRGB">
<feFlood flood-opacity="0" result="BackgroundImageFix"/>
<feColorMatrix in="SourceAlpha" type="matrix" values="0 0 0 0 0 0 0 0 0 0 0 0 0 0 0 0 0 0 127 0" result="hardAlpha"/>
<feOffset dy="12"/>
<feGaussianBlur stdDeviation="16"/>
<feColorMatrix type="matrix" values="0 0 0 0 0.101961 0 0 0 0 0.101961 0 0 0 0 0.101961 0 0 0 0.16 0"/>
<feBlend mode="normal" in2="BackgroundImageFix" result="effect1_dropShadow_403_3507"/>
<feBlend mode="normal" in="SourceGraphic" in2="effect1_dropShadow_403_3507" result="shape"/>
</filter>
<filter id="filter1_d_403_3507" x="1367" y="2494" width="464" height="295" filterUnits="userSpaceOnUse" color-interpolation-filters="sRGB">
<feFlood flood-opacity="0" result="BackgroundImageFix"/>
<feColorMatrix in="SourceAlpha" type="matrix" values="0 0 0 0 0 0 0 0 0 0 0 0 0 0 0 0 0 0 127 0" result="hardAlpha"/>
<feOffset dy="12"/>
<feGaussianBlur stdDeviation="16"/>
<feColorMatrix type="matrix" values="0 0 0 0 0.101961 0 0 0 0 0.101961 0 0 0 0 0.101961 0 0 0 0.16 0"/>
<feBlend mode="normal" in2="BackgroundImageFix" result="effect1_dropShadow_403_3507"/>
<feBlend mode="normal" in="SourceGraphic" in2="effect1_dropShadow_403_3507" result="shape"/>
</filter>
<filter id="filter2_d_403_3507" x="1367" y="738" width="464" height="295" filterUnits="userSpaceOnUse" color-interpolation-filters="sRGB">
<feFlood flood-opacity="0" result="BackgroundImageFix"/>
<feColorMatrix in="SourceAlpha" type="matrix" values="0 0 0 0 0 0 0 0 0 0 0 0 0 0 0 0 0 0 127 0" result="hardAlpha"/>
<feOffset dy="12"/>
<feGaussianBlur stdDeviation="16"/>
<feColorMatrix type="matrix" values="0 0 0 0 0.101961 0 0 0 0 0.101961 0 0 0 0 0.101961 0 0 0 0.16 0"/>
<feBlend mode="normal" in2="BackgroundImageFix" result="effect1_dropShadow_403_3507"/>
<feBlend mode="normal" in="SourceGraphic" in2="effect1_dropShadow_403_3507" result="shape"/>
</filter>
<filter id="filter3_d_403_3507" x="1368" y="1323.41" width="464" height="295.552" filterUnits="userSpaceOnUse" color-interpolation-filters="sRGB">
<feFlood flood-opacity="0" result="BackgroundImageFix"/>
<feColorMatrix in="SourceAlpha" type="matrix" values="0 0 0 0 0 0 0 0 0 0 0 0 0 0 0 0 0 0 127 0" result="hardAlpha"/>
<feOffset dy="12"/>
<feGaussianBlur stdDeviation="16"/>
<feColorMatrix type="matrix" values="0 0 0 0 0.101961 0 0 0 0 0.101961 0 0 0 0 0.101961 0 0 0 0.16 0"/>
<feBlend mode="normal" in2="BackgroundImageFix" result="effect1_dropShadow_403_3507"/>
<feBlend mode="normal" in="SourceGraphic" in2="effect1_dropShadow_403_3507" result="shape"/>
</filter>
<filter id="filter4_d_403_3507" x="746" y="1858" width="464" height="295" filterUnits="userSpaceOnUse" color-interpolation-filters="sRGB">
<feFlood flood-opacity="0" result="BackgroundImageFix"/>
<feColorMatrix in="SourceAlpha" type="matrix" values="0 0 0 0 0 0 0 0 0 0 0 0 0 0 0 0 0 0 127 0" result="hardAlpha"/>
<feOffset dy="12"/>
<feGaussianBlur stdDeviation="16"/>
<feColorMatrix type="matrix" values="0 0 0 0 0.101961 0 0 0 0 0.101961 0 0 0 0 0.101961 0 0 0 0.16 0"/>
<feBlend mode="normal" in2="BackgroundImageFix" result="effect1_dropShadow_403_3507"/>
<feBlend mode="normal" in="SourceGraphic" in2="effect1_dropShadow_403_3507" result="shape"/>
</filter>
<filter id="filter5_d_403_3507" x="1996" y="1834" width="464" height="295" filterUnits="userSpaceOnUse" color-interpolation-filters="sRGB">
<feFlood flood-opacity="0" result="BackgroundImageFix"/>
<feColorMatrix in="SourceAlpha" type="matrix" values="0 0 0 0 0 0 0 0 0 0 0 0 0 0 0 0 0 0 127 0" result="hardAlpha"/>
<feOffset dy="12"/>
<feGaussianBlur stdDeviation="16"/>
<feColorMatrix type="matrix" values="0 0 0 0 0.101961 0 0 0 0 0.101961 0 0 0 0 0.101961 0 0 0 0.16 0"/>
<feBlend mode="normal" in2="BackgroundImageFix" result="effect1_dropShadow_403_3507"/>
<feBlend mode="normal" in="SourceGraphic" in2="effect1_dropShadow_403_3507" result="shape"/>
</filter>
<filter id="filter6_d_403_3507" x="1996" y="2115" width="464" height="295" filterUnits="userSpaceOnUse" color-interpolation-filters="sRGB">
<feFlood flood-opacity="0" result="BackgroundImageFix"/>
<feColorMatrix in="SourceAlpha" type="matrix" values="0 0 0 0 0 0 0 0 0 0 0 0 0 0 0 0 0 0 127 0" result="hardAlpha"/>
<feOffset dy="12"/>
<feGaussianBlur stdDeviation="16"/>
<feColorMatrix type="matrix" values="0 0 0 0 0.101961 0 0 0 0 0.101961 0 0 0 0 0.101961 0 0 0 0.16 0"/>
<feBlend mode="normal" in2="BackgroundImageFix" result="effect1_dropShadow_403_3507"/>
<feBlend mode="normal" in="SourceGraphic" in2="effect1_dropShadow_403_3507" result="shape"/>
</filter>
<filter id="filter7_d_403_3507" x="1996" y="1553" width="464" height="295" filterUnits="userSpaceOnUse" color-interpolation-filters="sRGB">
<feFlood flood-opacity="0" result="BackgroundImageFix"/>
<feColorMatrix in="SourceAlpha" type="matrix" values="0 0 0 0 0 0 0 0 0 0 0 0 0 0 0 0 0 0 127 0" result="hardAlpha"/>
<feOffset dy="12"/>
<feGaussianBlur stdDeviation="16"/>
<feColorMatrix type="matrix" values="0 0 0 0 0.101961 0 0 0 0 0.101961 0 0 0 0 0.101961 0 0 0 0.16 0"/>
<feBlend mode="normal" in2="BackgroundImageFix" result="effect1_dropShadow_403_3507"/>
<feBlend mode="normal" in="SourceGraphic" in2="effect1_dropShadow_403_3507" result="shape"/>
</filter>
</defs>
</svg>
